<svg xmlns="http://www.w3.org/2000/svg" xmlns:oryx="http://oryx-editor.org" id="_26FE05DA-CA89-492C-8E07-2AE438D25B4A" width="554" height="261" xmlns:xlink="http://www.w3.org/1999/xlink" xmlns:svg="http://www.w3.org/2000/svg"><defs><marker id="_442160FA-7B63-4B3C-A6C8-2F9563335C3Cstart" refX="1" refY="5" markerUnits="userSpaceOnUse" markerWidth="17" markerHeight="11" orient="auto" fill="#000000" stroke="#000000"> 	  		<path id="_442160FA-7B63-4B3C-A6C8-2F9563335C3Cconditional" d="M 0 5 L 8 0 L 16 5 L 8 10 L 0 5" fill="white" stroke="#000000" stroke-width="1" display="none"/> 			<path id="_442160FA-7B63-4B3C-A6C8-2F9563335C3Cdefault" d="M 5 0 L 11 10" fill="white" stroke="#000000" stroke-width="1" display="none"/> 	  	</marker><marker id="_442160FA-7B63-4B3C-A6C8-2F9563335C3Cend" refX="15" refY="6" markerUnits="userSpaceOnUse" markerWidth="15" markerHeight="12" orient="auto" fill="#000000" stroke="#000000"> 	  		<path id="_442160FA-7B63-4B3C-A6C8-2F9563335C3Cframe2" d="M 0 1 L 15 6 L 0 11z" fill="#000000" stroke="#000000" stroke-linejoin="round" stroke-width="2"/> 	  	</marker><marker id="_41388AE7-D443-494D-841D-8603BF7FB78Bstart" refX="1" refY="5" markerUnits="userSpaceOnUse" markerWidth="17" markerHeight="11" orient="auto" fill="#000000" stroke="#000000"> 	  		<path id="_41388AE7-D443-494D-841D-8603BF7FB78Bconditional" d="M 0 5 L 8 0 L 16 5 L 8 10 L 0 5" fill="white" stroke="#000000" stroke-width="1" display="none"/> 			<path id="_41388AE7-D443-494D-841D-8603BF7FB78Bdefault" d="M 5 0 L 11 10" fill="white" stroke="#000000" stroke-width="1" display="none"/> 	  	</marker><marker id="_41388AE7-D443-494D-841D-8603BF7FB78Bend" refX="15" refY="6" markerUnits="userSpaceOnUse" markerWidth="15" markerHeight="12" orient="auto" fill="#000000" stroke="#000000"> 	  		<path id="_41388AE7-D443-494D-841D-8603BF7FB78Bframe2" d="M 0 1 L 15 6 L 0 11z" fill="#000000" stroke="#000000" stroke-linejoin="round" stroke-width="2"/> 	  	</marker><marker id="_FA66A865-B9E1-42CE-AE2F-2926B41701C6start" refX="1" refY="5" markerUnits="userSpaceOnUse" markerWidth="17" markerHeight="11" orient="auto" fill="#000000" stroke="#000000"> 	  		<path id="_FA66A865-B9E1-42CE-AE2F-2926B41701C6conditional" d="M 0 5 L 8 0 L 16 5 L 8 10 L 0 5" fill="white" stroke="#000000" stroke-width="1" display="none"/> 			<path id="_FA66A865-B9E1-42CE-AE2F-2926B41701C6default" d="M 5 0 L 11 10" fill="white" stroke="#000000" stroke-width="1" display="none"/> 	  	</marker><marker id="_FA66A865-B9E1-42CE-AE2F-2926B41701C6end" refX="15" refY="6" markerUnits="userSpaceOnUse" markerWidth="15" markerHeight="12" orient="auto" fill="#000000" stroke="#000000"> 	  		<path id="_FA66A865-B9E1-42CE-AE2F-2926B41701C6frame2" d="M 0 1 L 15 6 L 0 11z" fill="#000000" stroke="#000000" stroke-linejoin="round" stroke-width="2"/> 	  	</marker></defs><g stroke="none" font-family="Verdana, sans-serif" font-size-adjust="none" font-style="normal" font-variant="normal" font-weight="normal" line-heigth="normal" font-size="12"><g class="stencils" transform="translate(16, 16)"><g class="me"/><g class="children"><g id="_CFF1A7BA-509E-4A9D-B90D-55351E9E868C" bpmn2nodeid="processStartEvent"><g class="stencils" transform="translate(120, 165)"><g class="me"><g pointer-events="fill" id="_CFF1A7BA-509E-4A9D-B90D-55351E9E868C">        <defs id="_CFF1A7BA-509E-4A9D-B90D-55351E9E868C__CFF1A7BA-509E-4A9D-B90D-55351E9E868C_5"> 		<radialGradient id="_CFF1A7BA-509E-4A9D-B90D-55351E9E868Cbackground" cx="10%" cy="10%" r="100%" fx="10%" fy="10%"> 			<stop offset="0%" stop-color="#ffffff" stop-opacity="1" id="_CFF1A7BA-509E-4A9D-B90D-55351E9E868C__CFF1A7BA-509E-4A9D-B90D-55351E9E868C_6"/> 			<stop id="_CFF1A7BA-509E-4A9D-B90D-55351E9E868Cfill_el" offset="100%" stop-color="#9acd32" stop-opacity="1"/> 		</radialGradient> 	</defs> 	     <circle id="_CFF1A7BA-509E-4A9D-B90D-55351E9E868Cbg_frame" cx="15" cy="15" r="15" stroke="#000000" fill="url(#_CFF1A7BA-509E-4A9D-B90D-55351E9E868Cbackground) white" stroke-width="1" style="stroke-dasharray: 5.5, 3"/>      <circle id="_CFF1A7BA-509E-4A9D-B90D-55351E9E868Cframe" cx="15" cy="15" r="15" stroke="#000000" fill="none" stroke-width="1" display="inherit"/>  	<text font-size="11" id="_CFF1A7BA-509E-4A9D-B90D-55351E9E868Ctext_name" x="15" y="32" oryx:align="top center" stroke="black" stroke-width="0pt" letter-spacing="-0.01px" fill="#000000" text-anchor="middle" transform="rotate(0 15 32)" visibility="inherit" oryx:fontSize="11"/>   </g></g><g class="children" style="overflow:hidden"/><g class="edge"/></g><g class="controls"><g class="dockers"/><g class="magnets" transform="translate(120, 165)"><g pointer-events="all" display="none" transform="translate(7, 7)"><circle cx="8" cy="8" r="4" stroke="none" fill="red" fill-opacity="0.3"/></g></g></g></g><g id="_F27407A8-E57A-4485-9E70-CACA0D8BB819" bpmn2nodeid="_044B0769-4CA9-41FF-9A27-DDE422AD4FF3"><g class="stencils" transform="translate(195, 140)"><g class="me"><g pointer-events="fill" oryx:minimumSize="50 40" id="_F27407A8-E57A-4485-9E70-CACA0D8BB819">   	<defs id="_F27407A8-E57A-4485-9E70-CACA0D8BB819__F27407A8-E57A-4485-9E70-CACA0D8BB819_17"> 		<radialGradient id="_F27407A8-E57A-4485-9E70-CACA0D8BB819background" cx="10%" cy="10%" r="100%" fx="10%" fy="10%"> 			<stop offset="0%" stop-color="#ffffff" stop-opacity="1" id="_F27407A8-E57A-4485-9E70-CACA0D8BB819__F27407A8-E57A-4485-9E70-CACA0D8BB819_18"/> 			<stop id="_F27407A8-E57A-4485-9E70-CACA0D8BB819fill_el" offset="100%" stop-color="#fafad2" stop-opacity="1"/> 		</radialGradient> 		<radialGradient id="_F27407A8-E57A-4485-9E70-CACA0D8BB819borderbackground" cx="10%" cy="10%" r="100%" fx="10%" fy="10%"> 			<stop offset="0%" stop-color="#ffffff" stop-opacity="1" id="_F27407A8-E57A-4485-9E70-CACA0D8BB819__F27407A8-E57A-4485-9E70-CACA0D8BB819_19"/> 			<stop id="_F27407A8-E57A-4485-9E70-CACA0D8BB819fill_border" offset="100%" stop-color="#000000" stop-opacity="1" stroke="#000000"/> 		</radialGradient> 	</defs> 	 	<rect id="_F27407A8-E57A-4485-9E70-CACA0D8BB819text_frame" oryx:anchors="bottom top right left" x="1" y="1" width="94" height="79" rx="10" ry="10" stroke="none" stroke-width="0" fill="none"/> 	<rect id="_F27407A8-E57A-4485-9E70-CACA0D8BB819bg_frame" oryx:resize="vertical horizontal" x="0" y="0" width="100" height="80" rx="10" ry="10" stroke="#000000" stroke-width="1" fill="url(#_F27407A8-E57A-4485-9E70-CACA0D8BB819background) #ffffcc"/> 		<text font-size="12" id="_F27407A8-E57A-4485-9E70-CACA0D8BB819text_name" x="50" y="40" oryx:align="middle center" oryx:fittoelem="text_frame" stroke="black" text-anchor="middle" stroke-width="0pt" letter-spacing="-0.01px" fill="#000000" transform="rotate(0 50 40)" visibility="inherit" oryx:fontSize="12"><tspan x="50" y="40" dy="5">task1</tspan></text>     <g id="_F27407A8-E57A-4485-9E70-CACA0D8BB819manualTask" transform="scale(0.7,0.7) translate(8,8)" display="none">     	<path oryx:anchors="top left" id="_F27407A8-E57A-4485-9E70-CACA0D8BB819frame" style="opacity:1;fill:none;fill-opacity:1;stroke-width:1" d="M0.5,3.751l4.083-3.25c0,0,11.166,0.083,12.083,0.083s-2.417,2.917-1.5,2.917     s11.667,0,12.584,0c1.166,1.708-0.168,3.167-0.834,3.667s0.875,1.917-1,4.417c-0.75,0.25,0.75,1.875-1.333,3.333     c-1.167,0.583,0.583,1.542-1.25,2.833c-1.167,0-20.833,0.083-20.833,0.083l-2-1.333V3.751z" stroke="#000000"/> 		<path id="_F27407A8-E57A-4485-9E70-CACA0D8BB819frame2" oryx:anchors="top left" style="opacity:1;fill:none;stroke-width:2" d="M 13.5 7 L 27 7" stroke="#000000"/> 		<path id="_F27407A8-E57A-4485-9E70-CACA0D8BB819frame3" oryx:anchors="top left" style="opacity:1;fill:none;stroke-width:2" d="M 13.5 11 L 26 11" stroke="#000000"/> 		<path id="_F27407A8-E57A-4485-9E70-CACA0D8BB819frame4" oryx:anchors="top left" style="opacity:1;fill:none;stroke-width:1.5" d="M 14 14.5 L 25 14.5" stroke="#000000"/> 		<path id="_F27407A8-E57A-4485-9E70-CACA0D8BB819frame5" oryx:anchors="top left" style="opacity:1;fill:none;stroke-width:1.5" d="M 8.2 3.1 L 15 3.1" stroke="#000000"/> 	</g> 	 	<g id="_F27407A8-E57A-4485-9E70-CACA0D8BB819businessRuleTask" transform="scale(0.7,0.7) translate(8,8)" display="none"> 		<rect id="_F27407A8-E57A-4485-9E70-CACA0D8BB819frame6" oryx:anchors="top left" x="0" y="0" width="22" height="4" style="opacity:1;fill:#B3B1B3;fill-opacity:1;" stroke="#000000"/> 		<rect id="_F27407A8-E57A-4485-9E70-CACA0D8BB819frame7" oryx:anchors="top left" x="0" y="4" style="opacity:1;fill:none;" width="22" height="12" stroke="#000000"/> 		<path id="_F27407A8-E57A-4485-9E70-CACA0D8BB819frame8" oryx:anchors="top left" style="opacity:1;fill:none;" d="M 0 10 L 22 10" stroke="#000000"/> 		<path id="_F27407A8-E57A-4485-9E70-CACA0D8BB819frame9" oryx:anchors="top left" style="opacity:1; fill:none;" d="M 7 4 L 7 16" stroke="#000000"/> 	</g> 	 	<g id="_F27407A8-E57A-4485-9E70-CACA0D8BB819scriptTask" transform="scale(0.7,0.7) translate(8,8)" display="none"> 		<path oryx:anchors="top left" id="_F27407A8-E57A-4485-9E70-CACA0D8BB819frame10" style="opacity:1;fill:none;" stroke="#000000" d="M6.402,0.5h14.5c0,0-5.833,2.833-5.833,5.583s4.417,6,4.417,9.167    s-4.167,5.083-4.167,5.083H0.235c0,0,5-2.667,5-5s-4.583-6.75-4.583-9.25S6.402,0.5,6.402,0.5z"/> 		<path oryx:anchors="top left" id="_F27407A8-E57A-4485-9E70-CACA0D8BB819frame11" style="opacity:1;fill:none;stroke-width:1.5" d="M 3.5 4.5 L 13.5 4.5" stroke="#000000"/> 		<path oryx:anchors="top left" id="_F27407A8-E57A-4485-9E70-CACA0D8BB819frame12" style="opacity:1;fill:none;stroke-width:1.5" d="M 3.8 8.5 L 13.8 8.5" stroke="#000000"/> 		<path oryx:anchors="top left" id="_F27407A8-E57A-4485-9E70-CACA0D8BB819frame13" style="opacity:1;fill:none;stroke-width:1.5" d="M 6.3 12.5 L 16.3 12.5" stroke="#000000"/> 		<path oryx:anchors="top left" id="_F27407A8-E57A-4485-9E70-CACA0D8BB819frame14" style="opacity:1;fill:none;stroke-width:1.5" d="M 6.5 16.5 L 16.5 16.5" stroke="#000000"/> 	</g> 	 	<g id="_F27407A8-E57A-4485-9E70-CACA0D8BB819userTask" transform="scale(0.7,0.7) translate(8,8)" display="inherit"> 		<path id="_F27407A8-E57A-4485-9E70-CACA0D8BB819frame15" oryx:anchors="top left" style="opacity:1;fill:#F4F6F7" stroke="#000000" d="M0.585,24.167h24.083v-7.833c0,0-2.333-3.917-7.083-5.167h-9.25    c-4.417,1.333-7.833,5.75-7.833,5.75L0.585,24.167z"/> 		<path id="_F27407A8-E57A-4485-9E70-CACA0D8BB819frame16" oryx:anchors="top left" style="opacity:1;fill:none" d="M 6 20 L 6 24" stroke="#000000"/> 		<path id="_F27407A8-E57A-4485-9E70-CACA0D8BB819frame17" oryx:anchors="top left" style="opacity:1;fill:none" d="M 20 20 L 20 24" stroke="#000000"/> 		<circle id="_F27407A8-E57A-4485-9E70-CACA0D8BB819frame18" oryx:anchors="top left" fill="black" cx="13.002" cy="5.916" r="5.417" stroke="#000000"/> 		<path id="_F27407A8-E57A-4485-9E70-CACA0D8BB819frame19" oryx:anchors="top left" style="opacity:1;fill:#F0EFF0;" stroke="#000000" d="M8.043,7.083c0,0,2.814-2.426,5.376-1.807s4.624-0.693,4.624-0.693    c0.25,1.688,0.042,3.75-1.458,5.584c0,0,1.083,0.75,1.083,1.5s0.125,1.875-1,3s-5.5,1.25-6.75,0S8.668,12.834,8.668,12    s0.583-1.25,1.25-1.917C8.835,9.5,7.419,7.708,8.043,7.083z"/> 	</g> 	 	<g id="_F27407A8-E57A-4485-9E70-CACA0D8BB819serviceTask" transform="scale(0.7,0.7) translate(8,8)" display="none"> 		<polygon oryx:anchors="top left" id="_F27407A8-E57A-4485-9E70-CACA0D8BB819frame20" style="opacity:1;fill:#ffffff" stroke="#000000" points="15.392,5.064 17.954,2.502 20.347,4.895 17.786,7.455     18.729,9.732 22.353,9.732 22.353,13.115 18.731,13.115 17.788,15.392 20.351,17.955 17.958,20.347 15.397,17.786 13.12,18.729     13.12,22.353 9.737,22.353 9.737,18.731 7.46,17.788 4.897,20.35 2.506,17.958 5.066,15.397 4.124,13.12 0.5,13.12 0.5,9.737     4.121,9.737 5.065,7.461 2.503,4.898 4.895,2.506 7.455,5.066 9.732,4.125 9.732,0.5 13.116,0.5 13.116,4.121 "/> 		<circle oryx:anchors="top left" id="_F27407A8-E57A-4485-9E70-CACA0D8BB819frame21" style="opacity:1;fill:none" stroke="#000000" cx="11.427" cy="11.426" r="3.714"/> 		<polygon oryx:anchors="top left" id="_F27407A8-E57A-4485-9E70-CACA0D8BB819frame22" style="opacity:1;fill:#ffffff" stroke="#000000" points="21.392,11.064 23.954,8.502 26.347,10.895 23.786,13.455     24.729,15.732 28.353,15.732 28.353,19.115 24.731,19.115 23.788,21.392 26.351,23.955 23.958,26.347 21.397,23.786 19.12,24.729     19.12,28.353 15.737,28.353 15.737,24.731 13.46,23.788 10.897,26.35 8.506,23.958 11.066,21.397 10.124,19.12 6.5,19.12     6.5,15.737 10.121,15.737 11.065,13.461 8.503,10.898 10.895,8.506 13.455,11.066 15.732,10.125 15.732,6.5 19.116,6.5     19.116,10.121 "/> 		<circle oryx:anchors="top left" id="_F27407A8-E57A-4485-9E70-CACA0D8BB819frame23" style="opacity:1;fill:none;" stroke="#000000" cx="17.427" cy="17.426" r="3.714"/> 	</g> 	 	<g id="_F27407A8-E57A-4485-9E70-CACA0D8BB819sendTask" display="none"> 		<path id="_F27407A8-E57A-4485-9E70-CACA0D8BB819stframe24" oryx:anchors="left top" stroke="#FFFFFF" fill="black" stroke-width="1" d="M8,11 L8,21 L24,21 L24,11 L16,17z"/> 		<path id="_F27407A8-E57A-4485-9E70-CACA0D8BB819stframe25" oryx:anchors="left top" stroke="#FFFFFF" fill="black" stroke-width="1" d="M7,10 L16,17 L25 10z"/> 	</g> 	 	<g id="_F27407A8-E57A-4485-9E70-CACA0D8BB819receiveTask" display="none"> 		<path id="_F27407A8-E57A-4485-9E70-CACA0D8BB819frame26" oryx:anchors="left top" stroke="#000000" fill="none" stroke-width="1" d="M8,11 L8,21 L24,21 L24,11z M8,11 L16,17 L24,11"/> 	</g> 	 	<g id="_F27407A8-E57A-4485-9E70-CACA0D8BB819none" display="inherit"/>  	<g id="_F27407A8-E57A-4485-9E70-CACA0D8BB819sequential" display="none">         <path oryx:anchors="bottom" fill="none" stroke="#000000" stroke-width="2" d="M46,76h10M46,72h10 M46,68h10" id="_F27407A8-E57A-4485-9E70-CACA0D8BB819__F27407A8-E57A-4485-9E70-CACA0D8BB819_20"/>     </g>   </g></g><g class="children" style="overflow:hidden"/><g class="edge"/></g><g class="controls"><g class="dockers"/><g class="magnets" transform="translate(195, 140)"><g pointer-events="all" display="none" transform="translate(-7, 12)"><circle cx="8" cy="8" r="4" stroke="none" fill="red" fill-opacity="0.3"/></g><g pointer-events="all" display="none" transform="translate(-7, 32)"><circle cx="8" cy="8" r="4" stroke="none" fill="red" fill-opacity="0.3"/></g><g pointer-events="all" display="none" transform="translate(-7, 52)"><circle cx="8" cy="8" r="4" stroke="none" fill="red" fill-opacity="0.3"/></g><g pointer-events="all" display="none" transform="translate(17, 71)"><circle cx="8" cy="8" r="4" stroke="none" fill="red" fill-opacity="0.3"/></g><g pointer-events="all" display="none" transform="translate(42, 71)"><circle cx="8" cy="8" r="4" stroke="none" fill="red" fill-opacity="0.3"/></g><g pointer-events="all" display="none" transform="translate(67, 71)"><circle cx="8" cy="8" r="4" stroke="none" fill="red" fill-opacity="0.3"/></g><g pointer-events="all" display="none" transform="translate(91, 12)"><circle cx="8" cy="8" r="4" stroke="none" fill="red" fill-opacity="0.3"/></g><g pointer-events="all" display="none" transform="translate(91, 32)"><circle cx="8" cy="8" r="4" stroke="none" fill="red" fill-opacity="0.3"/></g><g pointer-events="all" display="none" transform="translate(91, 52)"><circle cx="8" cy="8" r="4" stroke="none" fill="red" fill-opacity="0.3"/></g><g pointer-events="all" display="none" transform="translate(17, -7)"><circle cx="8" cy="8" r="4" stroke="none" fill="red" fill-opacity="0.3"/></g><g pointer-events="all" display="none" transform="translate(42, -7)"><circle cx="8" cy="8" r="4" stroke="none" fill="red" fill-opacity="0.3"/></g><g pointer-events="all" display="none" transform="translate(67, -7)"><circle cx="8" cy="8" r="4" stroke="none" fill="red" fill-opacity="0.3"/></g><g pointer-events="all" display="none" transform="translate(42, 32)"><circle cx="8" cy="8" r="4" stroke="none" fill="red" fill-opacity="0.3"/></g></g></g></g><g id="_C5293B8B-077B-404F-B439-66CDA72A7D87" bpmn2nodeid="_21E8B8A2-2D56-4F49-B46A-75B20EF05FDF"><g class="stencils" transform="translate(340, 140)"><g class="me"><g pointer-events="fill" oryx:minimumSize="50 40" id="_C5293B8B-077B-404F-B439-66CDA72A7D87">   	<defs id="_C5293B8B-077B-404F-B439-66CDA72A7D87__C5293B8B-077B-404F-B439-66CDA72A7D87_17"> 		<radialGradient id="_C5293B8B-077B-404F-B439-66CDA72A7D87background" cx="10%" cy="10%" r="100%" fx="10%" fy="10%"> 			<stop offset="0%" stop-color="#ffffff" stop-opacity="1" id="_C5293B8B-077B-404F-B439-66CDA72A7D87__C5293B8B-077B-404F-B439-66CDA72A7D87_18"/> 			<stop id="_C5293B8B-077B-404F-B439-66CDA72A7D87fill_el" offset="100%" stop-color="#fafad2" stop-opacity="1"/> 		</radialGradient> 		<radialGradient id="_C5293B8B-077B-404F-B439-66CDA72A7D87borderbackground" cx="10%" cy="10%" r="100%" fx="10%" fy="10%"> 			<stop offset="0%" stop-color="#ffffff" stop-opacity="1" id="_C5293B8B-077B-404F-B439-66CDA72A7D87__C5293B8B-077B-404F-B439-66CDA72A7D87_19"/> 			<stop id="_C5293B8B-077B-404F-B439-66CDA72A7D87fill_border" offset="100%" stop-color="#000000" stop-opacity="1" stroke="#000000"/> 		</radialGradient> 	</defs> 	 	<rect id="_C5293B8B-077B-404F-B439-66CDA72A7D87text_frame" oryx:anchors="bottom top right left" x="1" y="1" width="94" height="79" rx="10" ry="10" stroke="none" stroke-width="0" fill="none"/> 	<rect id="_C5293B8B-077B-404F-B439-66CDA72A7D87bg_frame" oryx:resize="vertical horizontal" x="0" y="0" width="100" height="80" rx="10" ry="10" stroke="#000000" stroke-width="1" fill="url(#_C5293B8B-077B-404F-B439-66CDA72A7D87background) #ffffcc"/> 		<text font-size="12" id="_C5293B8B-077B-404F-B439-66CDA72A7D87text_name" x="50" y="40" oryx:align="middle center" oryx:fittoelem="text_frame" stroke="black" text-anchor="middle" stroke-width="0pt" letter-spacing="-0.01px" fill="#000000" transform="rotate(0 50 40)" visibility="inherit" oryx:fontSize="12"><tspan x="50" y="40" dy="5">task2</tspan></text>     <g id="_C5293B8B-077B-404F-B439-66CDA72A7D87manualTask" transform="scale(0.7,0.7) translate(8,8)" display="none">     	<path oryx:anchors="top left" id="_C5293B8B-077B-404F-B439-66CDA72A7D87frame" style="opacity:1;fill:none;fill-opacity:1;stroke-width:1" d="M0.5,3.751l4.083-3.25c0,0,11.166,0.083,12.083,0.083s-2.417,2.917-1.5,2.917     s11.667,0,12.584,0c1.166,1.708-0.168,3.167-0.834,3.667s0.875,1.917-1,4.417c-0.75,0.25,0.75,1.875-1.333,3.333     c-1.167,0.583,0.583,1.542-1.25,2.833c-1.167,0-20.833,0.083-20.833,0.083l-2-1.333V3.751z" stroke="#000000"/> 		<path id="_C5293B8B-077B-404F-B439-66CDA72A7D87frame2" oryx:anchors="top left" style="opacity:1;fill:none;stroke-width:2" d="M 13.5 7 L 27 7" stroke="#000000"/> 		<path id="_C5293B8B-077B-404F-B439-66CDA72A7D87frame3" oryx:anchors="top left" style="opacity:1;fill:none;stroke-width:2" d="M 13.5 11 L 26 11" stroke="#000000"/> 		<path id="_C5293B8B-077B-404F-B439-66CDA72A7D87frame4" oryx:anchors="top left" style="opacity:1;fill:none;stroke-width:1.5" d="M 14 14.5 L 25 14.5" stroke="#000000"/> 		<path id="_C5293B8B-077B-404F-B439-66CDA72A7D87frame5" oryx:anchors="top left" style="opacity:1;fill:none;stroke-width:1.5" d="M 8.2 3.1 L 15 3.1" stroke="#000000"/> 	</g> 	 	<g id="_C5293B8B-077B-404F-B439-66CDA72A7D87businessRuleTask" transform="scale(0.7,0.7) translate(8,8)" display="none"> 		<rect id="_C5293B8B-077B-404F-B439-66CDA72A7D87frame6" oryx:anchors="top left" x="0" y="0" width="22" height="4" style="opacity:1;fill:#B3B1B3;fill-opacity:1;" stroke="#000000"/> 		<rect id="_C5293B8B-077B-404F-B439-66CDA72A7D87frame7" oryx:anchors="top left" x="0" y="4" style="opacity:1;fill:none;" width="22" height="12" stroke="#000000"/> 		<path id="_C5293B8B-077B-404F-B439-66CDA72A7D87frame8" oryx:anchors="top left" style="opacity:1;fill:none;" d="M 0 10 L 22 10" stroke="#000000"/> 		<path id="_C5293B8B-077B-404F-B439-66CDA72A7D87frame9" oryx:anchors="top left" style="opacity:1; fill:none;" d="M 7 4 L 7 16" stroke="#000000"/> 	</g> 	 	<g id="_C5293B8B-077B-404F-B439-66CDA72A7D87scriptTask" transform="scale(0.7,0.7) translate(8,8)" display="none"> 		<path oryx:anchors="top left" id="_C5293B8B-077B-404F-B439-66CDA72A7D87frame10" style="opacity:1;fill:none;" stroke="#000000" d="M6.402,0.5h14.5c0,0-5.833,2.833-5.833,5.583s4.417,6,4.417,9.167    s-4.167,5.083-4.167,5.083H0.235c0,0,5-2.667,5-5s-4.583-6.75-4.583-9.25S6.402,0.5,6.402,0.5z"/> 		<path oryx:anchors="top left" id="_C5293B8B-077B-404F-B439-66CDA72A7D87frame11" style="opacity:1;fill:none;stroke-width:1.5" d="M 3.5 4.5 L 13.5 4.5" stroke="#000000"/> 		<path oryx:anchors="top left" id="_C5293B8B-077B-404F-B439-66CDA72A7D87frame12" style="opacity:1;fill:none;stroke-width:1.5" d="M 3.8 8.5 L 13.8 8.5" stroke="#000000"/> 		<path oryx:anchors="top left" id="_C5293B8B-077B-404F-B439-66CDA72A7D87frame13" style="opacity:1;fill:none;stroke-width:1.5" d="M 6.3 12.5 L 16.3 12.5" stroke="#000000"/> 		<path oryx:anchors="top left" id="_C5293B8B-077B-404F-B439-66CDA72A7D87frame14" style="opacity:1;fill:none;stroke-width:1.5" d="M 6.5 16.5 L 16.5 16.5" stroke="#000000"/> 	</g> 	 	<g id="_C5293B8B-077B-404F-B439-66CDA72A7D87userTask" transform="scale(0.7,0.7) translate(8,8)" display="inherit"> 		<path id="_C5293B8B-077B-404F-B439-66CDA72A7D87frame15" oryx:anchors="top left" style="opacity:1;fill:#F4F6F7" stroke="#000000" d="M0.585,24.167h24.083v-7.833c0,0-2.333-3.917-7.083-5.167h-9.25    c-4.417,1.333-7.833,5.75-7.833,5.75L0.585,24.167z"/> 		<path id="_C5293B8B-077B-404F-B439-66CDA72A7D87frame16" oryx:anchors="top left" style="opacity:1;fill:none" d="M 6 20 L 6 24" stroke="#000000"/> 		<path id="_C5293B8B-077B-404F-B439-66CDA72A7D87frame17" oryx:anchors="top left" style="opacity:1;fill:none" d="M 20 20 L 20 24" stroke="#000000"/> 		<circle id="_C5293B8B-077B-404F-B439-66CDA72A7D87frame18" oryx:anchors="top left" fill="black" cx="13.002" cy="5.916" r="5.417" stroke="#000000"/> 		<path id="_C5293B8B-077B-404F-B439-66CDA72A7D87frame19" oryx:anchors="top left" style="opacity:1;fill:#F0EFF0;" stroke="#000000" d="M8.043,7.083c0,0,2.814-2.426,5.376-1.807s4.624-0.693,4.624-0.693    c0.25,1.688,0.042,3.75-1.458,5.584c0,0,1.083,0.75,1.083,1.5s0.125,1.875-1,3s-5.5,1.25-6.75,0S8.668,12.834,8.668,12    s0.583-1.25,1.25-1.917C8.835,9.5,7.419,7.708,8.043,7.083z"/> 	</g> 	 	<g id="_C5293B8B-077B-404F-B439-66CDA72A7D87serviceTask" transform="scale(0.7,0.7) translate(8,8)" display="none"> 		<polygon oryx:anchors="top left" id="_C5293B8B-077B-404F-B439-66CDA72A7D87frame20" style="opacity:1;fill:#ffffff" stroke="#000000" points="15.392,5.064 17.954,2.502 20.347,4.895 17.786,7.455     18.729,9.732 22.353,9.732 22.353,13.115 18.731,13.115 17.788,15.392 20.351,17.955 17.958,20.347 15.397,17.786 13.12,18.729     13.12,22.353 9.737,22.353 9.737,18.731 7.46,17.788 4.897,20.35 2.506,17.958 5.066,15.397 4.124,13.12 0.5,13.12 0.5,9.737     4.121,9.737 5.065,7.461 2.503,4.898 4.895,2.506 7.455,5.066 9.732,4.125 9.732,0.5 13.116,0.5 13.116,4.121 "/> 		<circle oryx:anchors="top left" id="_C5293B8B-077B-404F-B439-66CDA72A7D87frame21" style="opacity:1;fill:none" stroke="#000000" cx="11.427" cy="11.426" r="3.714"/> 		<polygon oryx:anchors="top left" id="_C5293B8B-077B-404F-B439-66CDA72A7D87frame22" style="opacity:1;fill:#ffffff" stroke="#000000" points="21.392,11.064 23.954,8.502 26.347,10.895 23.786,13.455     24.729,15.732 28.353,15.732 28.353,19.115 24.731,19.115 23.788,21.392 26.351,23.955 23.958,26.347 21.397,23.786 19.12,24.729     19.12,28.353 15.737,28.353 15.737,24.731 13.46,23.788 10.897,26.35 8.506,23.958 11.066,21.397 10.124,19.12 6.5,19.12     6.5,15.737 10.121,15.737 11.065,13.461 8.503,10.898 10.895,8.506 13.455,11.066 15.732,10.125 15.732,6.5 19.116,6.5     19.116,10.121 "/> 		<circle oryx:anchors="top left" id="_C5293B8B-077B-404F-B439-66CDA72A7D87frame23" style="opacity:1;fill:none;" stroke="#000000" cx="17.427" cy="17.426" r="3.714"/> 	</g> 	 	<g id="_C5293B8B-077B-404F-B439-66CDA72A7D87sendTask" display="none"> 		<path id="_C5293B8B-077B-404F-B439-66CDA72A7D87stframe24" oryx:anchors="left top" stroke="#FFFFFF" fill="black" stroke-width="1" d="M8,11 L8,21 L24,21 L24,11 L16,17z"/> 		<path id="_C5293B8B-077B-404F-B439-66CDA72A7D87stframe25" oryx:anchors="left top" stroke="#FFFFFF" fill="black" stroke-width="1" d="M7,10 L16,17 L25 10z"/> 	</g> 	 	<g id="_C5293B8B-077B-404F-B439-66CDA72A7D87receiveTask" display="none"> 		<path id="_C5293B8B-077B-404F-B439-66CDA72A7D87frame26" oryx:anchors="left top" stroke="#000000" fill="none" stroke-width="1" d="M8,11 L8,21 L24,21 L24,11z M8,11 L16,17 L24,11"/> 	</g> 	 	<g id="_C5293B8B-077B-404F-B439-66CDA72A7D87none" display="none"/>  	<g id="_C5293B8B-077B-404F-B439-66CDA72A7D87sequential" display="none">         <path oryx:anchors="bottom" fill="none" stroke="#000000" stroke-width="2" d="M46,76h10M46,72h10 M46,68h10" id="_C5293B8B-077B-404F-B439-66CDA72A7D87__C5293B8B-077B-404F-B439-66CDA72A7D87_20"/>     </g>   </g></g><g class="children" style="overflow:hidden"/><g class="edge"/></g><g class="controls"><g class="dockers"/><g class="magnets" transform="translate(340, 140)"><g pointer-events="all" display="none" transform="translate(-7, 12)"><circle cx="8" cy="8" r="4" stroke="none" fill="red" fill-opacity="0.3"/></g><g pointer-events="all" display="none" transform="translate(-7, 32)"><circle cx="8" cy="8" r="4" stroke="none" fill="red" fill-opacity="0.3"/></g><g pointer-events="all" display="none" transform="translate(-7, 52)"><circle cx="8" cy="8" r="4" stroke="none" fill="red" fill-opacity="0.3"/></g><g pointer-events="all" display="none" transform="translate(17, 71)"><circle cx="8" cy="8" r="4" stroke="none" fill="red" fill-opacity="0.3"/></g><g pointer-events="all" display="none" transform="translate(42, 71)"><circle cx="8" cy="8" r="4" stroke="none" fill="red" fill-opacity="0.3"/></g><g pointer-events="all" display="none" transform="translate(67, 71)"><circle cx="8" cy="8" r="4" stroke="none" fill="red" fill-opacity="0.3"/></g><g pointer-events="all" display="none" transform="translate(91, 12)"><circle cx="8" cy="8" r="4" stroke="none" fill="red" fill-opacity="0.3"/></g><g pointer-events="all" display="none" transform="translate(91, 32)"><circle cx="8" cy="8" r="4" stroke="none" fill="red" fill-opacity="0.3"/></g><g pointer-events="all" display="none" transform="translate(91, 52)"><circle cx="8" cy="8" r="4" stroke="none" fill="red" fill-opacity="0.3"/></g><g pointer-events="all" display="none" transform="translate(17, -7)"><circle cx="8" cy="8" r="4" stroke="none" fill="red" fill-opacity="0.3"/></g><g pointer-events="all" display="none" transform="translate(42, -7)"><circle cx="8" cy="8" r="4" stroke="none" fill="red" fill-opacity="0.3"/></g><g pointer-events="all" display="none" transform="translate(67, -7)"><circle cx="8" cy="8" r="4" stroke="none" fill="red" fill-opacity="0.3"/></g><g pointer-events="all" display="none" transform="translate(42, 32)"><circle cx="8" cy="8" r="4" stroke="none" fill="red" fill-opacity="0.3"/></g></g></g></g><g id="_71F1A4DD-DCE2-4E90-8824-84DF6A8F8FD8" bpmn2nodeid="_88CAB53F-92F5-4BEB-972E-61263EB6F755"><g class="stencils" transform="translate(485, 166)"><g class="me"><g pointer-events="fill" id="_71F1A4DD-DCE2-4E90-8824-84DF6A8F8FD8">      <defs id="_71F1A4DD-DCE2-4E90-8824-84DF6A8F8FD8__71F1A4DD-DCE2-4E90-8824-84DF6A8F8FD8_5"> 		<radialGradient id="_71F1A4DD-DCE2-4E90-8824-84DF6A8F8FD8background" cx="10%" cy="10%" r="100%" fx="10%" fy="10%"> 			<stop offset="0%" stop-color="#ffffff" stop-opacity="1" id="_71F1A4DD-DCE2-4E90-8824-84DF6A8F8FD8__71F1A4DD-DCE2-4E90-8824-84DF6A8F8FD8_6"/> 			<stop id="_71F1A4DD-DCE2-4E90-8824-84DF6A8F8FD8fill_el" offset="100%" stop-color="#ff6347" stop-opacity="1"/> 		</radialGradient> 	</defs> 	     <circle id="_71F1A4DD-DCE2-4E90-8824-84DF6A8F8FD8bg_frame" cx="14" cy="14" r="14" stroke="#000000" fill="url(#_71F1A4DD-DCE2-4E90-8824-84DF6A8F8FD8background) white" stroke-width="3"/> 	<text font-size="11" id="_71F1A4DD-DCE2-4E90-8824-84DF6A8F8FD8text_name" x="14" y="30" oryx:align="top center" stroke="black" stroke-width="0pt" letter-spacing="-0.01px" fill="#000000" text-anchor="middle" transform="rotate(0 14 30)" visibility="inherit" oryx:fontSize="11"/>   </g></g><g class="children" style="overflow:hidden"/><g class="edge"/></g><g class="controls"><g class="dockers"/><g class="magnets" transform="translate(485, 166)"><g pointer-events="all" display="none" transform="translate(6, 6)"><circle cx="8" cy="8" r="4" stroke="none" fill="red" fill-opacity="0.3"/></g></g></g></g></g><g class="edge"><g id="_442160FA-7B63-4B3C-A6C8-2F9563335C3C" bpmn2nodeid="_7B678190-8257-4697-9AFC-823B3C33EC8D"><g class="stencils"><g class="me"><g pointer-events="painted" bpmn2nodeid="_68AA49FC-B6D3-445C-8FAA-B4F6D09328CA"><path id="_442160FA-7B63-4B3C-A6C8-2F9563335C3C_1" d="M150.609375 180L194.15625 180 " stroke="#000000" fill="none" stroke-width="2" stroke-linecap="round" stroke-linejoin="round" marker-start="url(#_442160FA-7B63-4B3C-A6C8-2F9563335C3Cstart)" marker-end="url(#_442160FA-7B63-4B3C-A6C8-2F9563335C3Cend)"/></g><text id="_442160FA-7B63-4B3C-A6C8-2F9563335C3Ctext_name" font-size="12" x="164.609375" y="166" oryx:edgePosition="startTop" stroke-width="0pt" letter-spacing="-0.01px" fill="#000000" text-anchor="start" transform="rotate(360 150.609375 180)" visibility="inherit" oryx:fontSize="12"/></g><g class="children" style="overflow:hidden"/><g class="edge"/></g><g class="controls"><g class="dockers"/><g class="magnets"/></g></g><g id="_41388AE7-D443-494D-841D-8603BF7FB78B" bpmn2nodeid="_C7E0A545-9B6E-4A04-A0BB-1EED5C4AF635"><g class="stencils"><g class="me"><g pointer-events="painted" bpmn2nodeid="_C7E0A545-9B6E-4A04-A0BB-1EED5C4AF635"><path id="_41388AE7-D443-494D-841D-8603BF7FB78B_1" d="M295.84375 180L339.15625 180 " stroke="#000000" fill="none" stroke-width="2" stroke-linecap="round" stroke-linejoin="round" marker-start="url(#_41388AE7-D443-494D-841D-8603BF7FB78Bstart)" marker-end="url(#_41388AE7-D443-494D-841D-8603BF7FB78Bend)"/></g><text id="_41388AE7-D443-494D-841D-8603BF7FB78Btext_name" font-size="12" x="309.84375" y="166" oryx:edgePosition="startTop" stroke-width="0pt" letter-spacing="-0.01px" fill="#000000" text-anchor="start" transform="rotate(360 295.84375 180)" visibility="inherit" oryx:fontSize="12"/></g><g class="children" style="overflow:hidden"/><g class="edge"/></g><g class="controls"><g class="dockers"/><g class="magnets"/></g></g><g id="_FA66A865-B9E1-42CE-AE2F-2926B41701C6" bpmn2nodeid="_0FAAB687-DC0A-4A32-9414-0DAE36A7C625"><g class="stencils"><g class="me"><g pointer-events="painted" bpmn2nodeid="_0FAAB687-DC0A-4A32-9414-0DAE36A7C625"><path id="_FA66A865-B9E1-42CE-AE2F-2926B41701C6_1" d="M440.390625 180L484.375 180 " stroke="#000000" fill="none" stroke-width="2" stroke-linecap="round" stroke-linejoin="round" marker-start="url(#_FA66A865-B9E1-42CE-AE2F-2926B41701C6start)" marker-end="url(#_FA66A865-B9E1-42CE-AE2F-2926B41701C6end)"/></g><text id="_FA66A865-B9E1-42CE-AE2F-2926B41701C6text_name" font-size="12" x="454.390625" y="166" oryx:edgePosition="startTop" stroke-width="0pt" letter-spacing="-0.01px" fill="#000000" text-anchor="start" transform="rotate(360 440.390625 180)" visibility="inherit" oryx:fontSize="12"/></g><g class="children" style="overflow:hidden"/><g class="edge"/></g><g class="controls"><g class="dockers"/><g class="magnets"/></g></g></g><text id="_76D1572B-3315-4861-9765-A7EBF1D6F0C8" style="stroke-width:1;fill:rgb(177,194,214);font-family:arial;font-weight:bold" font-size="12" onclick="ORYX.Plugins.CanvasTitle.openTextualAnalysis()" onmouseover="ORYX.Plugins.CanvasTitle.addToolTip('_76D1572B-3315-4861-9765-A7EBF1D6F0C8')" transform="translate(10, 20)">testBPD v.1.0 (com.telesure.gittest.gitBPD)</text></g></g></svg>