<svg xmlns="http://www.w3.org/2000/svg" xmlns:oryx="http://oryx-editor.org" id="_5A354F1B-6B3B-4A45-9D20-7154BB665F31" width="699" height="261" xmlns:xlink="http://www.w3.org/1999/xlink" xmlns:svg="http://www.w3.org/2000/svg"><defs><marker id="_1991EAC0-83E1-4D1E-A334-E4202F962BEEstart" refX="1" refY="5" markerUnits="userSpaceOnUse" markerWidth="17" markerHeight="11" orient="auto" fill="#000000" stroke="#000000"> 	  		<path id="_1991EAC0-83E1-4D1E-A334-E4202F962BEEconditional" d="M 0 5 L 8 0 L 16 5 L 8 10 L 0 5" fill="white" stroke="#000000" stroke-width="1" display="none"/> 			<path id="_1991EAC0-83E1-4D1E-A334-E4202F962BEEdefault" d="M 5 0 L 11 10" fill="white" stroke="#000000" stroke-width="1" display="none"/> 	  	</marker><marker id="_1991EAC0-83E1-4D1E-A334-E4202F962BEEend" refX="15" refY="6" markerUnits="userSpaceOnUse" markerWidth="15" markerHeight="12" orient="auto" fill="#000000" stroke="#000000"> 	  		<path id="_1991EAC0-83E1-4D1E-A334-E4202F962BEEframe2" d="M 0 1 L 15 6 L 0 11z" fill="#000000" stroke="#000000" stroke-linejoin="round" stroke-width="2"/> 	  	</marker><marker id="_72864CE9-A38E-4EAC-87D4-97D6D9957678start" refX="1" refY="5" markerUnits="userSpaceOnUse" markerWidth="17" markerHeight="11" orient="auto" fill="#000000" stroke="#000000"> 	  		<path id="_72864CE9-A38E-4EAC-87D4-97D6D9957678conditional" d="M 0 5 L 8 0 L 16 5 L 8 10 L 0 5" fill="white" stroke="#000000" stroke-width="1" display="none"/> 			<path id="_72864CE9-A38E-4EAC-87D4-97D6D9957678default" d="M 5 0 L 11 10" fill="white" stroke="#000000" stroke-width="1" display="none"/> 	  	</marker><marker id="_72864CE9-A38E-4EAC-87D4-97D6D9957678end" refX="15" refY="6" markerUnits="userSpaceOnUse" markerWidth="15" markerHeight="12" orient="auto" fill="#000000" stroke="#000000"> 	  		<path id="_72864CE9-A38E-4EAC-87D4-97D6D9957678frame2" d="M 0 1 L 15 6 L 0 11z" fill="#000000" stroke="#000000" stroke-linejoin="round" stroke-width="2"/> 	  	</marker><marker id="_29E74EF3-5A5C-4746-80DA-DFFD2BFB4F51start" refX="1" refY="5" markerUnits="userSpaceOnUse" markerWidth="17" markerHeight="11" orient="auto" fill="#000000" stroke="#000000"> 	  		<path id="_29E74EF3-5A5C-4746-80DA-DFFD2BFB4F51conditional" d="M 0 5 L 8 0 L 16 5 L 8 10 L 0 5" fill="white" stroke="#000000" stroke-width="1" display="none"/> 			<path id="_29E74EF3-5A5C-4746-80DA-DFFD2BFB4F51default" d="M 5 0 L 11 10" fill="white" stroke="#000000" stroke-width="1" display="none"/> 	  	</marker><marker id="_29E74EF3-5A5C-4746-80DA-DFFD2BFB4F51end" refX="15" refY="6" markerUnits="userSpaceOnUse" markerWidth="15" markerHeight="12" orient="auto" fill="#000000" stroke="#000000"> 	  		<path id="_29E74EF3-5A5C-4746-80DA-DFFD2BFB4F51frame2" d="M 0 1 L 15 6 L 0 11z" fill="#000000" stroke="#000000" stroke-linejoin="round" stroke-width="2"/> 	  	</marker><marker id="_8C237E34-86C7-44E3-BA57-123CA4B7C8EFstart" refX="1" refY="5" markerUnits="userSpaceOnUse" markerWidth="17" markerHeight="11" orient="auto" fill="#000000" stroke="#000000"> 	  		<path id="_8C237E34-86C7-44E3-BA57-123CA4B7C8EFconditional" d="M 0 5 L 8 0 L 16 5 L 8 10 L 0 5" fill="white" stroke="#000000" stroke-width="1" display="none"/> 			<path id="_8C237E34-86C7-44E3-BA57-123CA4B7C8EFdefault" d="M 5 0 L 11 10" fill="white" stroke="#000000" stroke-width="1" display="none"/> 	  	</marker><marker id="_8C237E34-86C7-44E3-BA57-123CA4B7C8EFend" refX="15" refY="6" markerUnits="userSpaceOnUse" markerWidth="15" markerHeight="12" orient="auto" fill="#000000" stroke="#000000"> 	  		<path id="_8C237E34-86C7-44E3-BA57-123CA4B7C8EFframe2" d="M 0 1 L 15 6 L 0 11z" fill="#000000" stroke="#000000" stroke-linejoin="round" stroke-width="2"/> 	  	</marker></defs><g stroke="none" font-family="Verdana, sans-serif" font-size-adjust="none" font-style="normal" font-variant="normal" font-weight="normal" line-heigth="normal" font-size="12"><g class="stencils" transform="translate(16, 16)"><g class="me"/><g class="children"><g id="_8E61E42D-7D87-414F-A944-BAC0D4099DA3" bpmn2nodeid="processStartEvent"><g class="stencils" transform="translate(120, 165)"><g class="me"><g pointer-events="fill" id="_8E61E42D-7D87-414F-A944-BAC0D4099DA3">        <defs id="_8E61E42D-7D87-414F-A944-BAC0D4099DA3__8E61E42D-7D87-414F-A944-BAC0D4099DA3_5"> 		<radialGradient id="_8E61E42D-7D87-414F-A944-BAC0D4099DA3background" cx="10%" cy="10%" r="100%" fx="10%" fy="10%"> 			<stop offset="0%" stop-color="#ffffff" stop-opacity="1" id="_8E61E42D-7D87-414F-A944-BAC0D4099DA3__8E61E42D-7D87-414F-A944-BAC0D4099DA3_6"/> 			<stop id="_8E61E42D-7D87-414F-A944-BAC0D4099DA3fill_el" offset="100%" stop-color="#9acd32" stop-opacity="1"/> 		</radialGradient> 	</defs> 	     <circle id="_8E61E42D-7D87-414F-A944-BAC0D4099DA3bg_frame" cx="15" cy="15" r="15" stroke="#000000" fill="url(#_8E61E42D-7D87-414F-A944-BAC0D4099DA3background) white" stroke-width="1" style="stroke-dasharray: 5.5, 3"/>      <circle id="_8E61E42D-7D87-414F-A944-BAC0D4099DA3frame" cx="15" cy="15" r="15" stroke="#000000" fill="none" stroke-width="1" display="inherit"/>  	<text font-size="11" id="_8E61E42D-7D87-414F-A944-BAC0D4099DA3text_name" x="15" y="32" oryx:align="top center" stroke="black" stroke-width="0pt" letter-spacing="-0.01px" fill="#000000" text-anchor="middle" transform="rotate(0 15 32)" visibility="inherit" oryx:fontSize="11"/>   </g></g><g class="children" style="overflow:hidden"/><g class="edge"/></g><g class="controls"><g class="dockers"/><g class="magnets" transform="translate(120, 165)"><g pointer-events="all" display="none" transform="translate(7, 7)"><circle cx="8" cy="8" r="4" stroke="none" fill="red" fill-opacity="0.3"/></g></g></g></g><g id="_C0EC52A1-FD3C-464C-855B-7938AB0AB506" bpmn2nodeid="_044B0769-4CA9-41FF-9A27-DDE422AD4FF3"><g class="stencils" transform="translate(195, 140)"><g class="me"><g pointer-events="fill" oryx:minimumSize="50 40" id="_C0EC52A1-FD3C-464C-855B-7938AB0AB506">   	<defs id="_C0EC52A1-FD3C-464C-855B-7938AB0AB506__C0EC52A1-FD3C-464C-855B-7938AB0AB506_17"> 		<radialGradient id="_C0EC52A1-FD3C-464C-855B-7938AB0AB506background" cx="10%" cy="10%" r="100%" fx="10%" fy="10%"> 			<stop offset="0%" stop-color="#ffffff" stop-opacity="1" id="_C0EC52A1-FD3C-464C-855B-7938AB0AB506__C0EC52A1-FD3C-464C-855B-7938AB0AB506_18"/> 			<stop id="_C0EC52A1-FD3C-464C-855B-7938AB0AB506fill_el" offset="100%" stop-color="#fafad2" stop-opacity="1"/> 		</radialGradient> 		<radialGradient id="_C0EC52A1-FD3C-464C-855B-7938AB0AB506borderbackground" cx="10%" cy="10%" r="100%" fx="10%" fy="10%"> 			<stop offset="0%" stop-color="#ffffff" stop-opacity="1" id="_C0EC52A1-FD3C-464C-855B-7938AB0AB506__C0EC52A1-FD3C-464C-855B-7938AB0AB506_19"/> 			<stop id="_C0EC52A1-FD3C-464C-855B-7938AB0AB506fill_border" offset="100%" stop-color="#000000" stop-opacity="1" stroke="#000000"/> 		</radialGradient> 	</defs> 	 	<rect id="_C0EC52A1-FD3C-464C-855B-7938AB0AB506text_frame" oryx:anchors="bottom top right left" x="1" y="1" width="94" height="79" rx="10" ry="10" stroke="none" stroke-width="0" fill="none"/> 	<rect id="_C0EC52A1-FD3C-464C-855B-7938AB0AB506bg_frame" oryx:resize="vertical horizontal" x="0" y="0" width="100" height="80" rx="10" ry="10" stroke="#000000" stroke-width="1" fill="url(#_C0EC52A1-FD3C-464C-855B-7938AB0AB506background) #ffffcc"/> 		<text font-size="12" id="_C0EC52A1-FD3C-464C-855B-7938AB0AB506text_name" x="50" y="40" oryx:align="middle center" oryx:fittoelem="text_frame" stroke="black" text-anchor="middle" stroke-width="0pt" letter-spacing="-0.01px" fill="#000000" transform="rotate(0 50 40)" visibility="inherit" oryx:fontSize="12"><tspan x="50" y="40" dy="5">task1</tspan></text>     <g id="_C0EC52A1-FD3C-464C-855B-7938AB0AB506manualTask" transform="scale(0.7,0.7) translate(8,8)" display="none">     	<path oryx:anchors="top left" id="_C0EC52A1-FD3C-464C-855B-7938AB0AB506frame" style="opacity:1;fill:none;fill-opacity:1;stroke-width:1" d="M0.5,3.751l4.083-3.25c0,0,11.166,0.083,12.083,0.083s-2.417,2.917-1.5,2.917     s11.667,0,12.584,0c1.166,1.708-0.168,3.167-0.834,3.667s0.875,1.917-1,4.417c-0.75,0.25,0.75,1.875-1.333,3.333     c-1.167,0.583,0.583,1.542-1.25,2.833c-1.167,0-20.833,0.083-20.833,0.083l-2-1.333V3.751z" stroke="#000000"/> 		<path id="_C0EC52A1-FD3C-464C-855B-7938AB0AB506frame2" oryx:anchors="top left" style="opacity:1;fill:none;stroke-width:2" d="M 13.5 7 L 27 7" stroke="#000000"/> 		<path id="_C0EC52A1-FD3C-464C-855B-7938AB0AB506frame3" oryx:anchors="top left" style="opacity:1;fill:none;stroke-width:2" d="M 13.5 11 L 26 11" stroke="#000000"/> 		<path id="_C0EC52A1-FD3C-464C-855B-7938AB0AB506frame4" oryx:anchors="top left" style="opacity:1;fill:none;stroke-width:1.5" d="M 14 14.5 L 25 14.5" stroke="#000000"/> 		<path id="_C0EC52A1-FD3C-464C-855B-7938AB0AB506frame5" oryx:anchors="top left" style="opacity:1;fill:none;stroke-width:1.5" d="M 8.2 3.1 L 15 3.1" stroke="#000000"/> 	</g> 	 	<g id="_C0EC52A1-FD3C-464C-855B-7938AB0AB506businessRuleTask" transform="scale(0.7,0.7) translate(8,8)" display="none"> 		<rect id="_C0EC52A1-FD3C-464C-855B-7938AB0AB506frame6" oryx:anchors="top left" x="0" y="0" width="22" height="4" style="opacity:1;fill:#B3B1B3;fill-opacity:1;" stroke="#000000"/> 		<rect id="_C0EC52A1-FD3C-464C-855B-7938AB0AB506frame7" oryx:anchors="top left" x="0" y="4" style="opacity:1;fill:none;" width="22" height="12" stroke="#000000"/> 		<path id="_C0EC52A1-FD3C-464C-855B-7938AB0AB506frame8" oryx:anchors="top left" style="opacity:1;fill:none;" d="M 0 10 L 22 10" stroke="#000000"/> 		<path id="_C0EC52A1-FD3C-464C-855B-7938AB0AB506frame9" oryx:anchors="top left" style="opacity:1; fill:none;" d="M 7 4 L 7 16" stroke="#000000"/> 	</g> 	 	<g id="_C0EC52A1-FD3C-464C-855B-7938AB0AB506scriptTask" transform="scale(0.7,0.7) translate(8,8)" display="none"> 		<path oryx:anchors="top left" id="_C0EC52A1-FD3C-464C-855B-7938AB0AB506frame10" style="opacity:1;fill:none;" stroke="#000000" d="M6.402,0.5h14.5c0,0-5.833,2.833-5.833,5.583s4.417,6,4.417,9.167    s-4.167,5.083-4.167,5.083H0.235c0,0,5-2.667,5-5s-4.583-6.75-4.583-9.25S6.402,0.5,6.402,0.5z"/> 		<path oryx:anchors="top left" id="_C0EC52A1-FD3C-464C-855B-7938AB0AB506frame11" style="opacity:1;fill:none;stroke-width:1.5" d="M 3.5 4.5 L 13.5 4.5" stroke="#000000"/> 		<path oryx:anchors="top left" id="_C0EC52A1-FD3C-464C-855B-7938AB0AB506frame12" style="opacity:1;fill:none;stroke-width:1.5" d="M 3.8 8.5 L 13.8 8.5" stroke="#000000"/> 		<path oryx:anchors="top left" id="_C0EC52A1-FD3C-464C-855B-7938AB0AB506frame13" style="opacity:1;fill:none;stroke-width:1.5" d="M 6.3 12.5 L 16.3 12.5" stroke="#000000"/> 		<path oryx:anchors="top left" id="_C0EC52A1-FD3C-464C-855B-7938AB0AB506frame14" style="opacity:1;fill:none;stroke-width:1.5" d="M 6.5 16.5 L 16.5 16.5" stroke="#000000"/> 	</g> 	 	<g id="_C0EC52A1-FD3C-464C-855B-7938AB0AB506userTask" transform="scale(0.7,0.7) translate(8,8)" display="inherit"> 		<path id="_C0EC52A1-FD3C-464C-855B-7938AB0AB506frame15" oryx:anchors="top left" style="opacity:1;fill:#F4F6F7" stroke="#000000" d="M0.585,24.167h24.083v-7.833c0,0-2.333-3.917-7.083-5.167h-9.25    c-4.417,1.333-7.833,5.75-7.833,5.75L0.585,24.167z"/> 		<path id="_C0EC52A1-FD3C-464C-855B-7938AB0AB506frame16" oryx:anchors="top left" style="opacity:1;fill:none" d="M 6 20 L 6 24" stroke="#000000"/> 		<path id="_C0EC52A1-FD3C-464C-855B-7938AB0AB506frame17" oryx:anchors="top left" style="opacity:1;fill:none" d="M 20 20 L 20 24" stroke="#000000"/> 		<circle id="_C0EC52A1-FD3C-464C-855B-7938AB0AB506frame18" oryx:anchors="top left" fill="black" cx="13.002" cy="5.916" r="5.417" stroke="#000000"/> 		<path id="_C0EC52A1-FD3C-464C-855B-7938AB0AB506frame19" oryx:anchors="top left" style="opacity:1;fill:#F0EFF0;" stroke="#000000" d="M8.043,7.083c0,0,2.814-2.426,5.376-1.807s4.624-0.693,4.624-0.693    c0.25,1.688,0.042,3.75-1.458,5.584c0,0,1.083,0.75,1.083,1.5s0.125,1.875-1,3s-5.5,1.25-6.75,0S8.668,12.834,8.668,12    s0.583-1.25,1.25-1.917C8.835,9.5,7.419,7.708,8.043,7.083z"/> 	</g> 	 	<g id="_C0EC52A1-FD3C-464C-855B-7938AB0AB506serviceTask" transform="scale(0.7,0.7) translate(8,8)" display="none"> 		<polygon oryx:anchors="top left" id="_C0EC52A1-FD3C-464C-855B-7938AB0AB506frame20" style="opacity:1;fill:#ffffff" stroke="#000000" points="15.392,5.064 17.954,2.502 20.347,4.895 17.786,7.455     18.729,9.732 22.353,9.732 22.353,13.115 18.731,13.115 17.788,15.392 20.351,17.955 17.958,20.347 15.397,17.786 13.12,18.729     13.12,22.353 9.737,22.353 9.737,18.731 7.46,17.788 4.897,20.35 2.506,17.958 5.066,15.397 4.124,13.12 0.5,13.12 0.5,9.737     4.121,9.737 5.065,7.461 2.503,4.898 4.895,2.506 7.455,5.066 9.732,4.125 9.732,0.5 13.116,0.5 13.116,4.121 "/> 		<circle oryx:anchors="top left" id="_C0EC52A1-FD3C-464C-855B-7938AB0AB506frame21" style="opacity:1;fill:none" stroke="#000000" cx="11.427" cy="11.426" r="3.714"/> 		<polygon oryx:anchors="top left" id="_C0EC52A1-FD3C-464C-855B-7938AB0AB506frame22" style="opacity:1;fill:#ffffff" stroke="#000000" points="21.392,11.064 23.954,8.502 26.347,10.895 23.786,13.455     24.729,15.732 28.353,15.732 28.353,19.115 24.731,19.115 23.788,21.392 26.351,23.955 23.958,26.347 21.397,23.786 19.12,24.729     19.12,28.353 15.737,28.353 15.737,24.731 13.46,23.788 10.897,26.35 8.506,23.958 11.066,21.397 10.124,19.12 6.5,19.12     6.5,15.737 10.121,15.737 11.065,13.461 8.503,10.898 10.895,8.506 13.455,11.066 15.732,10.125 15.732,6.5 19.116,6.5     19.116,10.121 "/> 		<circle oryx:anchors="top left" id="_C0EC52A1-FD3C-464C-855B-7938AB0AB506frame23" style="opacity:1;fill:none;" stroke="#000000" cx="17.427" cy="17.426" r="3.714"/> 	</g> 	 	<g id="_C0EC52A1-FD3C-464C-855B-7938AB0AB506sendTask" display="none"> 		<path id="_C0EC52A1-FD3C-464C-855B-7938AB0AB506stframe24" oryx:anchors="left top" stroke="#FFFFFF" fill="black" stroke-width="1" d="M8,11 L8,21 L24,21 L24,11 L16,17z"/> 		<path id="_C0EC52A1-FD3C-464C-855B-7938AB0AB506stframe25" oryx:anchors="left top" stroke="#FFFFFF" fill="black" stroke-width="1" d="M7,10 L16,17 L25 10z"/> 	</g> 	 	<g id="_C0EC52A1-FD3C-464C-855B-7938AB0AB506receiveTask" display="none"> 		<path id="_C0EC52A1-FD3C-464C-855B-7938AB0AB506frame26" oryx:anchors="left top" stroke="#000000" fill="none" stroke-width="1" d="M8,11 L8,21 L24,21 L24,11z M8,11 L16,17 L24,11"/> 	</g> 	 	<g id="_C0EC52A1-FD3C-464C-855B-7938AB0AB506none" display="inherit"/>  	<g id="_C0EC52A1-FD3C-464C-855B-7938AB0AB506sequential" display="none">         <path oryx:anchors="bottom" fill="none" stroke="#000000" stroke-width="2" d="M46,76h10M46,72h10 M46,68h10" id="_C0EC52A1-FD3C-464C-855B-7938AB0AB506__C0EC52A1-FD3C-464C-855B-7938AB0AB506_20"/>     </g>   </g></g><g class="children" style="overflow:hidden"/><g class="edge"/></g><g class="controls"><g class="dockers"/><g class="magnets" transform="translate(195, 140)"><g pointer-events="all" display="none" transform="translate(-7, 12)"><circle cx="8" cy="8" r="4" stroke="none" fill="red" fill-opacity="0.3"/></g><g pointer-events="all" display="none" transform="translate(-7, 32)"><circle cx="8" cy="8" r="4" stroke="none" fill="red" fill-opacity="0.3"/></g><g pointer-events="all" display="none" transform="translate(-7, 52)"><circle cx="8" cy="8" r="4" stroke="none" fill="red" fill-opacity="0.3"/></g><g pointer-events="all" display="none" transform="translate(17, 71)"><circle cx="8" cy="8" r="4" stroke="none" fill="red" fill-opacity="0.3"/></g><g pointer-events="all" display="none" transform="translate(42, 71)"><circle cx="8" cy="8" r="4" stroke="none" fill="red" fill-opacity="0.3"/></g><g pointer-events="all" display="none" transform="translate(67, 71)"><circle cx="8" cy="8" r="4" stroke="none" fill="red" fill-opacity="0.3"/></g><g pointer-events="all" display="none" transform="translate(91, 12)"><circle cx="8" cy="8" r="4" stroke="none" fill="red" fill-opacity="0.3"/></g><g pointer-events="all" display="none" transform="translate(91, 32)"><circle cx="8" cy="8" r="4" stroke="none" fill="red" fill-opacity="0.3"/></g><g pointer-events="all" display="none" transform="translate(91, 52)"><circle cx="8" cy="8" r="4" stroke="none" fill="red" fill-opacity="0.3"/></g><g pointer-events="all" display="none" transform="translate(17, -7)"><circle cx="8" cy="8" r="4" stroke="none" fill="red" fill-opacity="0.3"/></g><g pointer-events="all" display="none" transform="translate(42, -7)"><circle cx="8" cy="8" r="4" stroke="none" fill="red" fill-opacity="0.3"/></g><g pointer-events="all" display="none" transform="translate(67, -7)"><circle cx="8" cy="8" r="4" stroke="none" fill="red" fill-opacity="0.3"/></g><g pointer-events="all" display="none" transform="translate(42, 32)"><circle cx="8" cy="8" r="4" stroke="none" fill="red" fill-opacity="0.3"/></g></g></g></g><g id="_461FE604-88E7-42DF-A1A0-F827DE79F797" bpmn2nodeid="_21E8B8A2-2D56-4F49-B46A-75B20EF05FDF"><g class="stencils" transform="translate(340, 140)"><g class="me"><g pointer-events="fill" oryx:minimumSize="50 40" id="_461FE604-88E7-42DF-A1A0-F827DE79F797">   	<defs id="_461FE604-88E7-42DF-A1A0-F827DE79F797__461FE604-88E7-42DF-A1A0-F827DE79F797_17"> 		<radialGradient id="_461FE604-88E7-42DF-A1A0-F827DE79F797background" cx="10%" cy="10%" r="100%" fx="10%" fy="10%"> 			<stop offset="0%" stop-color="#ffffff" stop-opacity="1" id="_461FE604-88E7-42DF-A1A0-F827DE79F797__461FE604-88E7-42DF-A1A0-F827DE79F797_18"/> 			<stop id="_461FE604-88E7-42DF-A1A0-F827DE79F797fill_el" offset="100%" stop-color="#fafad2" stop-opacity="1"/> 		</radialGradient> 		<radialGradient id="_461FE604-88E7-42DF-A1A0-F827DE79F797borderbackground" cx="10%" cy="10%" r="100%" fx="10%" fy="10%"> 			<stop offset="0%" stop-color="#ffffff" stop-opacity="1" id="_461FE604-88E7-42DF-A1A0-F827DE79F797__461FE604-88E7-42DF-A1A0-F827DE79F797_19"/> 			<stop id="_461FE604-88E7-42DF-A1A0-F827DE79F797fill_border" offset="100%" stop-color="#000000" stop-opacity="1" stroke="#000000"/> 		</radialGradient> 	</defs> 	 	<rect id="_461FE604-88E7-42DF-A1A0-F827DE79F797text_frame" oryx:anchors="bottom top right left" x="1" y="1" width="94" height="79" rx="10" ry="10" stroke="none" stroke-width="0" fill="none"/> 	<rect id="_461FE604-88E7-42DF-A1A0-F827DE79F797bg_frame" oryx:resize="vertical horizontal" x="0" y="0" width="100" height="80" rx="10" ry="10" stroke="#000000" stroke-width="1" fill="url(#_461FE604-88E7-42DF-A1A0-F827DE79F797background) #ffffcc"/> 		<text font-size="12" id="_461FE604-88E7-42DF-A1A0-F827DE79F797text_name" x="50" y="40" oryx:align="middle center" oryx:fittoelem="text_frame" stroke="black" text-anchor="middle" stroke-width="0pt" letter-spacing="-0.01px" fill="#000000" transform="rotate(0 50 40)" visibility="inherit" oryx:fontSize="12"><tspan x="50" y="40" dy="5" id="ext-gen656">task2</tspan></text>     <g id="_461FE604-88E7-42DF-A1A0-F827DE79F797manualTask" transform="scale(0.7,0.7) translate(8,8)" display="none">     	<path oryx:anchors="top left" id="_461FE604-88E7-42DF-A1A0-F827DE79F797frame" style="opacity:1;fill:none;fill-opacity:1;stroke-width:1" d="M0.5,3.751l4.083-3.25c0,0,11.166,0.083,12.083,0.083s-2.417,2.917-1.5,2.917     s11.667,0,12.584,0c1.166,1.708-0.168,3.167-0.834,3.667s0.875,1.917-1,4.417c-0.75,0.25,0.75,1.875-1.333,3.333     c-1.167,0.583,0.583,1.542-1.25,2.833c-1.167,0-20.833,0.083-20.833,0.083l-2-1.333V3.751z" stroke="#000000"/> 		<path id="_461FE604-88E7-42DF-A1A0-F827DE79F797frame2" oryx:anchors="top left" style="opacity:1;fill:none;stroke-width:2" d="M 13.5 7 L 27 7" stroke="#000000"/> 		<path id="_461FE604-88E7-42DF-A1A0-F827DE79F797frame3" oryx:anchors="top left" style="opacity:1;fill:none;stroke-width:2" d="M 13.5 11 L 26 11" stroke="#000000"/> 		<path id="_461FE604-88E7-42DF-A1A0-F827DE79F797frame4" oryx:anchors="top left" style="opacity:1;fill:none;stroke-width:1.5" d="M 14 14.5 L 25 14.5" stroke="#000000"/> 		<path id="_461FE604-88E7-42DF-A1A0-F827DE79F797frame5" oryx:anchors="top left" style="opacity:1;fill:none;stroke-width:1.5" d="M 8.2 3.1 L 15 3.1" stroke="#000000"/> 	</g> 	 	<g id="_461FE604-88E7-42DF-A1A0-F827DE79F797businessRuleTask" transform="scale(0.7,0.7) translate(8,8)" display="none"> 		<rect id="_461FE604-88E7-42DF-A1A0-F827DE79F797frame6" oryx:anchors="top left" x="0" y="0" width="22" height="4" style="opacity:1;fill:#B3B1B3;fill-opacity:1;" stroke="#000000"/> 		<rect id="_461FE604-88E7-42DF-A1A0-F827DE79F797frame7" oryx:anchors="top left" x="0" y="4" style="opacity:1;fill:none;" width="22" height="12" stroke="#000000"/> 		<path id="_461FE604-88E7-42DF-A1A0-F827DE79F797frame8" oryx:anchors="top left" style="opacity:1;fill:none;" d="M 0 10 L 22 10" stroke="#000000"/> 		<path id="_461FE604-88E7-42DF-A1A0-F827DE79F797frame9" oryx:anchors="top left" style="opacity:1; fill:none;" d="M 7 4 L 7 16" stroke="#000000"/> 	</g> 	 	<g id="_461FE604-88E7-42DF-A1A0-F827DE79F797scriptTask" transform="scale(0.7,0.7) translate(8,8)" display="none"> 		<path oryx:anchors="top left" id="_461FE604-88E7-42DF-A1A0-F827DE79F797frame10" style="opacity:1;fill:none;" stroke="#000000" d="M6.402,0.5h14.5c0,0-5.833,2.833-5.833,5.583s4.417,6,4.417,9.167    s-4.167,5.083-4.167,5.083H0.235c0,0,5-2.667,5-5s-4.583-6.75-4.583-9.25S6.402,0.5,6.402,0.5z"/> 		<path oryx:anchors="top left" id="_461FE604-88E7-42DF-A1A0-F827DE79F797frame11" style="opacity:1;fill:none;stroke-width:1.5" d="M 3.5 4.5 L 13.5 4.5" stroke="#000000"/> 		<path oryx:anchors="top left" id="_461FE604-88E7-42DF-A1A0-F827DE79F797frame12" style="opacity:1;fill:none;stroke-width:1.5" d="M 3.8 8.5 L 13.8 8.5" stroke="#000000"/> 		<path oryx:anchors="top left" id="_461FE604-88E7-42DF-A1A0-F827DE79F797frame13" style="opacity:1;fill:none;stroke-width:1.5" d="M 6.3 12.5 L 16.3 12.5" stroke="#000000"/> 		<path oryx:anchors="top left" id="_461FE604-88E7-42DF-A1A0-F827DE79F797frame14" style="opacity:1;fill:none;stroke-width:1.5" d="M 6.5 16.5 L 16.5 16.5" stroke="#000000"/> 	</g> 	 	<g id="_461FE604-88E7-42DF-A1A0-F827DE79F797userTask" transform="scale(0.7,0.7) translate(8,8)" display="inherit"> 		<path id="_461FE604-88E7-42DF-A1A0-F827DE79F797frame15" oryx:anchors="top left" style="opacity:1;fill:#F4F6F7" stroke="#000000" d="M0.585,24.167h24.083v-7.833c0,0-2.333-3.917-7.083-5.167h-9.25    c-4.417,1.333-7.833,5.75-7.833,5.75L0.585,24.167z"/> 		<path id="_461FE604-88E7-42DF-A1A0-F827DE79F797frame16" oryx:anchors="top left" style="opacity:1;fill:none" d="M 6 20 L 6 24" stroke="#000000"/> 		<path id="_461FE604-88E7-42DF-A1A0-F827DE79F797frame17" oryx:anchors="top left" style="opacity:1;fill:none" d="M 20 20 L 20 24" stroke="#000000"/> 		<circle id="_461FE604-88E7-42DF-A1A0-F827DE79F797frame18" oryx:anchors="top left" fill="black" cx="13.002" cy="5.916" r="5.417" stroke="#000000"/> 		<path id="_461FE604-88E7-42DF-A1A0-F827DE79F797frame19" oryx:anchors="top left" style="opacity:1;fill:#F0EFF0;" stroke="#000000" d="M8.043,7.083c0,0,2.814-2.426,5.376-1.807s4.624-0.693,4.624-0.693    c0.25,1.688,0.042,3.75-1.458,5.584c0,0,1.083,0.75,1.083,1.5s0.125,1.875-1,3s-5.5,1.25-6.75,0S8.668,12.834,8.668,12    s0.583-1.25,1.25-1.917C8.835,9.5,7.419,7.708,8.043,7.083z"/> 	</g> 	 	<g id="_461FE604-88E7-42DF-A1A0-F827DE79F797serviceTask" transform="scale(0.7,0.7) translate(8,8)" display="none"> 		<polygon oryx:anchors="top left" id="_461FE604-88E7-42DF-A1A0-F827DE79F797frame20" style="opacity:1;fill:#ffffff" stroke="#000000" points="15.392,5.064 17.954,2.502 20.347,4.895 17.786,7.455     18.729,9.732 22.353,9.732 22.353,13.115 18.731,13.115 17.788,15.392 20.351,17.955 17.958,20.347 15.397,17.786 13.12,18.729     13.12,22.353 9.737,22.353 9.737,18.731 7.46,17.788 4.897,20.35 2.506,17.958 5.066,15.397 4.124,13.12 0.5,13.12 0.5,9.737     4.121,9.737 5.065,7.461 2.503,4.898 4.895,2.506 7.455,5.066 9.732,4.125 9.732,0.5 13.116,0.5 13.116,4.121 "/> 		<circle oryx:anchors="top left" id="_461FE604-88E7-42DF-A1A0-F827DE79F797frame21" style="opacity:1;fill:none" stroke="#000000" cx="11.427" cy="11.426" r="3.714"/> 		<polygon oryx:anchors="top left" id="_461FE604-88E7-42DF-A1A0-F827DE79F797frame22" style="opacity:1;fill:#ffffff" stroke="#000000" points="21.392,11.064 23.954,8.502 26.347,10.895 23.786,13.455     24.729,15.732 28.353,15.732 28.353,19.115 24.731,19.115 23.788,21.392 26.351,23.955 23.958,26.347 21.397,23.786 19.12,24.729     19.12,28.353 15.737,28.353 15.737,24.731 13.46,23.788 10.897,26.35 8.506,23.958 11.066,21.397 10.124,19.12 6.5,19.12     6.5,15.737 10.121,15.737 11.065,13.461 8.503,10.898 10.895,8.506 13.455,11.066 15.732,10.125 15.732,6.5 19.116,6.5     19.116,10.121 "/> 		<circle oryx:anchors="top left" id="_461FE604-88E7-42DF-A1A0-F827DE79F797frame23" style="opacity:1;fill:none;" stroke="#000000" cx="17.427" cy="17.426" r="3.714"/> 	</g> 	 	<g id="_461FE604-88E7-42DF-A1A0-F827DE79F797sendTask" display="none"> 		<path id="_461FE604-88E7-42DF-A1A0-F827DE79F797stframe24" oryx:anchors="left top" stroke="#FFFFFF" fill="black" stroke-width="1" d="M8,11 L8,21 L24,21 L24,11 L16,17z"/> 		<path id="_461FE604-88E7-42DF-A1A0-F827DE79F797stframe25" oryx:anchors="left top" stroke="#FFFFFF" fill="black" stroke-width="1" d="M7,10 L16,17 L25 10z"/> 	</g> 	 	<g id="_461FE604-88E7-42DF-A1A0-F827DE79F797receiveTask" display="none"> 		<path id="_461FE604-88E7-42DF-A1A0-F827DE79F797frame26" oryx:anchors="left top" stroke="#000000" fill="none" stroke-width="1" d="M8,11 L8,21 L24,21 L24,11z M8,11 L16,17 L24,11"/> 	</g> 	 	<g id="_461FE604-88E7-42DF-A1A0-F827DE79F797none" display="inherit"/>  	<g id="_461FE604-88E7-42DF-A1A0-F827DE79F797sequential" display="none">         <path oryx:anchors="bottom" fill="none" stroke="#000000" stroke-width="2" d="M46,76h10M46,72h10 M46,68h10" id="_461FE604-88E7-42DF-A1A0-F827DE79F797__461FE604-88E7-42DF-A1A0-F827DE79F797_20"/>     </g>   </g></g><g class="children" style="overflow:hidden"/><g class="edge"/></g><g class="controls"><g class="dockers"/><g class="magnets" transform="translate(340, 140)"><g pointer-events="all" display="none" transform="translate(-7, 12)"><circle cx="8" cy="8" r="4" stroke="none" fill="red" fill-opacity="0.3"/></g><g pointer-events="all" display="none" transform="translate(-7, 32)"><circle cx="8" cy="8" r="4" stroke="none" fill="red" fill-opacity="0.3"/></g><g pointer-events="all" display="none" transform="translate(-7, 52)"><circle cx="8" cy="8" r="4" stroke="none" fill="red" fill-opacity="0.3"/></g><g pointer-events="all" display="none" transform="translate(17, 71)"><circle cx="8" cy="8" r="4" stroke="none" fill="red" fill-opacity="0.3"/></g><g pointer-events="all" display="none" transform="translate(42, 71)"><circle cx="8" cy="8" r="4" stroke="none" fill="red" fill-opacity="0.3"/></g><g pointer-events="all" display="none" transform="translate(67, 71)"><circle cx="8" cy="8" r="4" stroke="none" fill="red" fill-opacity="0.3"/></g><g pointer-events="all" display="none" transform="translate(91, 12)"><circle cx="8" cy="8" r="4" stroke="none" fill="red" fill-opacity="0.3"/></g><g pointer-events="all" display="none" transform="translate(91, 32)"><circle cx="8" cy="8" r="4" stroke="none" fill="red" fill-opacity="0.3"/></g><g pointer-events="all" display="none" transform="translate(91, 52)"><circle cx="8" cy="8" r="4" stroke="none" fill="red" fill-opacity="0.3"/></g><g pointer-events="all" display="none" transform="translate(17, -7)"><circle cx="8" cy="8" r="4" stroke="none" fill="red" fill-opacity="0.3"/></g><g pointer-events="all" display="none" transform="translate(42, -7)"><circle cx="8" cy="8" r="4" stroke="none" fill="red" fill-opacity="0.3"/></g><g pointer-events="all" display="none" transform="translate(67, -7)"><circle cx="8" cy="8" r="4" stroke="none" fill="red" fill-opacity="0.3"/></g><g pointer-events="all" display="none" transform="translate(42, 32)"><circle cx="8" cy="8" r="4" stroke="none" fill="red" fill-opacity="0.3"/></g></g></g></g><g id="_88F85680-A418-4DE8-9B1E-9CD9F2421074" bpmn2nodeid="_B81DD542-71B4-46CF-8FC3-6DF4E6E45057"><g class="stencils" transform="translate(485, 140)"><g class="me"><g pointer-events="fill" oryx:minimumSize="50 40" id="_88F85680-A418-4DE8-9B1E-9CD9F2421074">   	<defs id="_88F85680-A418-4DE8-9B1E-9CD9F2421074__88F85680-A418-4DE8-9B1E-9CD9F2421074_17"> 		<radialGradient id="_88F85680-A418-4DE8-9B1E-9CD9F2421074background" cx="10%" cy="10%" r="100%" fx="10%" fy="10%"> 			<stop offset="0%" stop-color="#ffffff" stop-opacity="1" id="_88F85680-A418-4DE8-9B1E-9CD9F2421074__88F85680-A418-4DE8-9B1E-9CD9F2421074_18"/> 			<stop id="_88F85680-A418-4DE8-9B1E-9CD9F2421074fill_el" offset="100%" stop-color="#fafad2" stop-opacity="1"/> 		</radialGradient> 		<radialGradient id="_88F85680-A418-4DE8-9B1E-9CD9F2421074borderbackground" cx="10%" cy="10%" r="100%" fx="10%" fy="10%"> 			<stop offset="0%" stop-color="#ffffff" stop-opacity="1" id="_88F85680-A418-4DE8-9B1E-9CD9F2421074__88F85680-A418-4DE8-9B1E-9CD9F2421074_19"/> 			<stop id="_88F85680-A418-4DE8-9B1E-9CD9F2421074fill_border" offset="100%" stop-color="#000000" stop-opacity="1" stroke="#000000"/> 		</radialGradient> 	</defs> 	 	<rect id="_88F85680-A418-4DE8-9B1E-9CD9F2421074text_frame" oryx:anchors="bottom top right left" x="1" y="1" width="94" height="79" rx="10" ry="10" stroke="none" stroke-width="0" fill="none"/> 	<rect id="_88F85680-A418-4DE8-9B1E-9CD9F2421074bg_frame" oryx:resize="vertical horizontal" x="0" y="0" width="100" height="80" rx="10" ry="10" stroke="#000000" stroke-width="1" fill="url(#_88F85680-A418-4DE8-9B1E-9CD9F2421074background) #ffffcc"/> 		<text font-size="12" id="_88F85680-A418-4DE8-9B1E-9CD9F2421074text_name" x="50" y="40" oryx:align="middle center" oryx:fittoelem="text_frame" stroke="black" text-anchor="middle" stroke-width="0pt" letter-spacing="-0.01px" fill="#000000" transform="rotate(0 50 40)" visibility="inherit" oryx:fontSize="12"><tspan x="50" y="40" dy="5">task3</tspan></text>     <g id="_88F85680-A418-4DE8-9B1E-9CD9F2421074manualTask" transform="scale(0.7,0.7) translate(8,8)" display="none">     	<path oryx:anchors="top left" id="_88F85680-A418-4DE8-9B1E-9CD9F2421074frame" style="opacity:1;fill:none;fill-opacity:1;stroke-width:1" d="M0.5,3.751l4.083-3.25c0,0,11.166,0.083,12.083,0.083s-2.417,2.917-1.5,2.917     s11.667,0,12.584,0c1.166,1.708-0.168,3.167-0.834,3.667s0.875,1.917-1,4.417c-0.75,0.25,0.75,1.875-1.333,3.333     c-1.167,0.583,0.583,1.542-1.25,2.833c-1.167,0-20.833,0.083-20.833,0.083l-2-1.333V3.751z" stroke="#000000"/> 		<path id="_88F85680-A418-4DE8-9B1E-9CD9F2421074frame2" oryx:anchors="top left" style="opacity:1;fill:none;stroke-width:2" d="M 13.5 7 L 27 7" stroke="#000000"/> 		<path id="_88F85680-A418-4DE8-9B1E-9CD9F2421074frame3" oryx:anchors="top left" style="opacity:1;fill:none;stroke-width:2" d="M 13.5 11 L 26 11" stroke="#000000"/> 		<path id="_88F85680-A418-4DE8-9B1E-9CD9F2421074frame4" oryx:anchors="top left" style="opacity:1;fill:none;stroke-width:1.5" d="M 14 14.5 L 25 14.5" stroke="#000000"/> 		<path id="_88F85680-A418-4DE8-9B1E-9CD9F2421074frame5" oryx:anchors="top left" style="opacity:1;fill:none;stroke-width:1.5" d="M 8.2 3.1 L 15 3.1" stroke="#000000"/> 	</g> 	 	<g id="_88F85680-A418-4DE8-9B1E-9CD9F2421074businessRuleTask" transform="scale(0.7,0.7) translate(8,8)" display="none"> 		<rect id="_88F85680-A418-4DE8-9B1E-9CD9F2421074frame6" oryx:anchors="top left" x="0" y="0" width="22" height="4" style="opacity:1;fill:#B3B1B3;fill-opacity:1;" stroke="#000000"/> 		<rect id="_88F85680-A418-4DE8-9B1E-9CD9F2421074frame7" oryx:anchors="top left" x="0" y="4" style="opacity:1;fill:none;" width="22" height="12" stroke="#000000"/> 		<path id="_88F85680-A418-4DE8-9B1E-9CD9F2421074frame8" oryx:anchors="top left" style="opacity:1;fill:none;" d="M 0 10 L 22 10" stroke="#000000"/> 		<path id="_88F85680-A418-4DE8-9B1E-9CD9F2421074frame9" oryx:anchors="top left" style="opacity:1; fill:none;" d="M 7 4 L 7 16" stroke="#000000"/> 	</g> 	 	<g id="_88F85680-A418-4DE8-9B1E-9CD9F2421074scriptTask" transform="scale(0.7,0.7) translate(8,8)" display="none"> 		<path oryx:anchors="top left" id="_88F85680-A418-4DE8-9B1E-9CD9F2421074frame10" style="opacity:1;fill:none;" stroke="#000000" d="M6.402,0.5h14.5c0,0-5.833,2.833-5.833,5.583s4.417,6,4.417,9.167    s-4.167,5.083-4.167,5.083H0.235c0,0,5-2.667,5-5s-4.583-6.75-4.583-9.25S6.402,0.5,6.402,0.5z"/> 		<path oryx:anchors="top left" id="_88F85680-A418-4DE8-9B1E-9CD9F2421074frame11" style="opacity:1;fill:none;stroke-width:1.5" d="M 3.5 4.5 L 13.5 4.5" stroke="#000000"/> 		<path oryx:anchors="top left" id="_88F85680-A418-4DE8-9B1E-9CD9F2421074frame12" style="opacity:1;fill:none;stroke-width:1.5" d="M 3.8 8.5 L 13.8 8.5" stroke="#000000"/> 		<path oryx:anchors="top left" id="_88F85680-A418-4DE8-9B1E-9CD9F2421074frame13" style="opacity:1;fill:none;stroke-width:1.5" d="M 6.3 12.5 L 16.3 12.5" stroke="#000000"/> 		<path oryx:anchors="top left" id="_88F85680-A418-4DE8-9B1E-9CD9F2421074frame14" style="opacity:1;fill:none;stroke-width:1.5" d="M 6.5 16.5 L 16.5 16.5" stroke="#000000"/> 	</g> 	 	<g id="_88F85680-A418-4DE8-9B1E-9CD9F2421074userTask" transform="scale(0.7,0.7) translate(8,8)" display="inherit"> 		<path id="_88F85680-A418-4DE8-9B1E-9CD9F2421074frame15" oryx:anchors="top left" style="opacity:1;fill:#F4F6F7" stroke="#000000" d="M0.585,24.167h24.083v-7.833c0,0-2.333-3.917-7.083-5.167h-9.25    c-4.417,1.333-7.833,5.75-7.833,5.75L0.585,24.167z"/> 		<path id="_88F85680-A418-4DE8-9B1E-9CD9F2421074frame16" oryx:anchors="top left" style="opacity:1;fill:none" d="M 6 20 L 6 24" stroke="#000000"/> 		<path id="_88F85680-A418-4DE8-9B1E-9CD9F2421074frame17" oryx:anchors="top left" style="opacity:1;fill:none" d="M 20 20 L 20 24" stroke="#000000"/> 		<circle id="_88F85680-A418-4DE8-9B1E-9CD9F2421074frame18" oryx:anchors="top left" fill="black" cx="13.002" cy="5.916" r="5.417" stroke="#000000"/> 		<path id="_88F85680-A418-4DE8-9B1E-9CD9F2421074frame19" oryx:anchors="top left" style="opacity:1;fill:#F0EFF0;" stroke="#000000" d="M8.043,7.083c0,0,2.814-2.426,5.376-1.807s4.624-0.693,4.624-0.693    c0.25,1.688,0.042,3.75-1.458,5.584c0,0,1.083,0.75,1.083,1.5s0.125,1.875-1,3s-5.5,1.25-6.75,0S8.668,12.834,8.668,12    s0.583-1.25,1.25-1.917C8.835,9.5,7.419,7.708,8.043,7.083z"/> 	</g> 	 	<g id="_88F85680-A418-4DE8-9B1E-9CD9F2421074serviceTask" transform="scale(0.7,0.7) translate(8,8)" display="none"> 		<polygon oryx:anchors="top left" id="_88F85680-A418-4DE8-9B1E-9CD9F2421074frame20" style="opacity:1;fill:#ffffff" stroke="#000000" points="15.392,5.064 17.954,2.502 20.347,4.895 17.786,7.455     18.729,9.732 22.353,9.732 22.353,13.115 18.731,13.115 17.788,15.392 20.351,17.955 17.958,20.347 15.397,17.786 13.12,18.729     13.12,22.353 9.737,22.353 9.737,18.731 7.46,17.788 4.897,20.35 2.506,17.958 5.066,15.397 4.124,13.12 0.5,13.12 0.5,9.737     4.121,9.737 5.065,7.461 2.503,4.898 4.895,2.506 7.455,5.066 9.732,4.125 9.732,0.5 13.116,0.5 13.116,4.121 "/> 		<circle oryx:anchors="top left" id="_88F85680-A418-4DE8-9B1E-9CD9F2421074frame21" style="opacity:1;fill:none" stroke="#000000" cx="11.427" cy="11.426" r="3.714"/> 		<polygon oryx:anchors="top left" id="_88F85680-A418-4DE8-9B1E-9CD9F2421074frame22" style="opacity:1;fill:#ffffff" stroke="#000000" points="21.392,11.064 23.954,8.502 26.347,10.895 23.786,13.455     24.729,15.732 28.353,15.732 28.353,19.115 24.731,19.115 23.788,21.392 26.351,23.955 23.958,26.347 21.397,23.786 19.12,24.729     19.12,28.353 15.737,28.353 15.737,24.731 13.46,23.788 10.897,26.35 8.506,23.958 11.066,21.397 10.124,19.12 6.5,19.12     6.5,15.737 10.121,15.737 11.065,13.461 8.503,10.898 10.895,8.506 13.455,11.066 15.732,10.125 15.732,6.5 19.116,6.5     19.116,10.121 "/> 		<circle oryx:anchors="top left" id="_88F85680-A418-4DE8-9B1E-9CD9F2421074frame23" style="opacity:1;fill:none;" stroke="#000000" cx="17.427" cy="17.426" r="3.714"/> 	</g> 	 	<g id="_88F85680-A418-4DE8-9B1E-9CD9F2421074sendTask" display="none"> 		<path id="_88F85680-A418-4DE8-9B1E-9CD9F2421074stframe24" oryx:anchors="left top" stroke="#FFFFFF" fill="black" stroke-width="1" d="M8,11 L8,21 L24,21 L24,11 L16,17z"/> 		<path id="_88F85680-A418-4DE8-9B1E-9CD9F2421074stframe25" oryx:anchors="left top" stroke="#FFFFFF" fill="black" stroke-width="1" d="M7,10 L16,17 L25 10z"/> 	</g> 	 	<g id="_88F85680-A418-4DE8-9B1E-9CD9F2421074receiveTask" display="none"> 		<path id="_88F85680-A418-4DE8-9B1E-9CD9F2421074frame26" oryx:anchors="left top" stroke="#000000" fill="none" stroke-width="1" d="M8,11 L8,21 L24,21 L24,11z M8,11 L16,17 L24,11"/> 	</g> 	 	<g id="_88F85680-A418-4DE8-9B1E-9CD9F2421074none" display="none"/>  	<g id="_88F85680-A418-4DE8-9B1E-9CD9F2421074sequential" display="none">         <path oryx:anchors="bottom" fill="none" stroke="#000000" stroke-width="2" d="M46,76h10M46,72h10 M46,68h10" id="_88F85680-A418-4DE8-9B1E-9CD9F2421074__88F85680-A418-4DE8-9B1E-9CD9F2421074_20"/>     </g>   </g></g><g class="children" style="overflow:hidden"/><g class="edge"/></g><g class="controls"><g class="dockers"/><g class="magnets" transform="translate(485, 140)"><g pointer-events="all" display="none" transform="translate(-7, 12)"><circle cx="8" cy="8" r="4" stroke="none" fill="red" fill-opacity="0.3"/></g><g pointer-events="all" display="none" transform="translate(-7, 32)"><circle cx="8" cy="8" r="4" stroke="none" fill="red" fill-opacity="0.3"/></g><g pointer-events="all" display="none" transform="translate(-7, 52)"><circle cx="8" cy="8" r="4" stroke="none" fill="red" fill-opacity="0.3"/></g><g pointer-events="all" display="none" transform="translate(17, 71)"><circle cx="8" cy="8" r="4" stroke="none" fill="red" fill-opacity="0.3"/></g><g pointer-events="all" display="none" transform="translate(42, 71)"><circle cx="8" cy="8" r="4" stroke="none" fill="red" fill-opacity="0.3"/></g><g pointer-events="all" display="none" transform="translate(67, 71)"><circle cx="8" cy="8" r="4" stroke="none" fill="red" fill-opacity="0.3"/></g><g pointer-events="all" display="none" transform="translate(91, 12)"><circle cx="8" cy="8" r="4" stroke="none" fill="red" fill-opacity="0.3"/></g><g pointer-events="all" display="none" transform="translate(91, 32)"><circle cx="8" cy="8" r="4" stroke="none" fill="red" fill-opacity="0.3"/></g><g pointer-events="all" display="none" transform="translate(91, 52)"><circle cx="8" cy="8" r="4" stroke="none" fill="red" fill-opacity="0.3"/></g><g pointer-events="all" display="none" transform="translate(17, -7)"><circle cx="8" cy="8" r="4" stroke="none" fill="red" fill-opacity="0.3"/></g><g pointer-events="all" display="none" transform="translate(42, -7)"><circle cx="8" cy="8" r="4" stroke="none" fill="red" fill-opacity="0.3"/></g><g pointer-events="all" display="none" transform="translate(67, -7)"><circle cx="8" cy="8" r="4" stroke="none" fill="red" fill-opacity="0.3"/></g><g pointer-events="all" display="none" transform="translate(42, 32)"><circle cx="8" cy="8" r="4" stroke="none" fill="red" fill-opacity="0.3"/></g></g></g></g><g id="_763F1AC9-5EA8-47A2-81E6-CD40FEA424B2" bpmn2nodeid="_ECFC646A-2FC1-4914-BFF4-06BF975EFE82"><g class="stencils" transform="translate(630, 166)"><g class="me"><g pointer-events="fill" id="_763F1AC9-5EA8-47A2-81E6-CD40FEA424B2">      <defs id="_763F1AC9-5EA8-47A2-81E6-CD40FEA424B2__763F1AC9-5EA8-47A2-81E6-CD40FEA424B2_5"> 		<radialGradient id="_763F1AC9-5EA8-47A2-81E6-CD40FEA424B2background" cx="10%" cy="10%" r="100%" fx="10%" fy="10%"> 			<stop offset="0%" stop-color="#ffffff" stop-opacity="1" id="_763F1AC9-5EA8-47A2-81E6-CD40FEA424B2__763F1AC9-5EA8-47A2-81E6-CD40FEA424B2_6"/> 			<stop id="_763F1AC9-5EA8-47A2-81E6-CD40FEA424B2fill_el" offset="100%" stop-color="#ff6347" stop-opacity="1"/> 		</radialGradient> 	</defs> 	     <circle id="_763F1AC9-5EA8-47A2-81E6-CD40FEA424B2bg_frame" cx="14" cy="14" r="14" stroke="#000000" fill="url(#_763F1AC9-5EA8-47A2-81E6-CD40FEA424B2background) white" stroke-width="3"/> 	<text font-size="11" id="_763F1AC9-5EA8-47A2-81E6-CD40FEA424B2text_name" x="14" y="30" oryx:align="top center" stroke="black" stroke-width="0pt" letter-spacing="-0.01px" fill="#000000" text-anchor="middle" transform="rotate(0 14 30)" visibility="inherit" oryx:fontSize="11"/>   </g></g><g class="children" style="overflow:hidden"/><g class="edge"/></g><g class="controls"><g class="dockers"/><g class="magnets" transform="translate(630, 166)"><g pointer-events="all" display="none" transform="translate(6, 6)"><circle cx="8" cy="8" r="4" stroke="none" fill="red" fill-opacity="0.3"/></g></g></g></g></g><g class="edge"><g id="_1991EAC0-83E1-4D1E-A334-E4202F962BEE" bpmn2nodeid="_7B678190-8257-4697-9AFC-823B3C33EC8D"><g class="stencils"><g class="me"><g pointer-events="painted" bpmn2nodeid="_1C0F2F4A-B893-4677-AC52-824EAEC23F4B"><path id="_1991EAC0-83E1-4D1E-A334-E4202F962BEE_1" d="M150.609375 180L194.15625 180 " stroke="#000000" fill="none" stroke-width="2" stroke-linecap="round" stroke-linejoin="round" marker-start="url(#_1991EAC0-83E1-4D1E-A334-E4202F962BEEstart)" marker-end="url(#_1991EAC0-83E1-4D1E-A334-E4202F962BEEend)"/></g><text id="_1991EAC0-83E1-4D1E-A334-E4202F962BEEtext_name" font-size="12" x="164.609375" y="166" oryx:edgePosition="startTop" stroke-width="0pt" letter-spacing="-0.01px" fill="#000000" text-anchor="start" transform="rotate(360 150.609375 180)" visibility="inherit" oryx:fontSize="12"/></g><g class="children" style="overflow:hidden"/><g class="edge"/></g><g class="controls"><g class="dockers"/><g class="magnets"/></g></g><g id="_72864CE9-A38E-4EAC-87D4-97D6D9957678" bpmn2nodeid="_C7E0A545-9B6E-4A04-A0BB-1EED5C4AF635"><g class="stencils"><g class="me"><g pointer-events="painted" bpmn2nodeid="_C8FF167B-46C6-4339-955E-4A04266A0E27"><path id="_72864CE9-A38E-4EAC-87D4-97D6D9957678_1" d="M295.84375 180L339.15625 180 " stroke="#000000" fill="none" stroke-width="2" stroke-linecap="round" stroke-linejoin="round" marker-start="url(#_72864CE9-A38E-4EAC-87D4-97D6D9957678start)" marker-end="url(#_72864CE9-A38E-4EAC-87D4-97D6D9957678end)"/></g><text id="_72864CE9-A38E-4EAC-87D4-97D6D9957678text_name" font-size="12" x="309.84375" y="166" oryx:edgePosition="startTop" stroke-width="0pt" letter-spacing="-0.01px" fill="#000000" text-anchor="start" transform="rotate(360 295.84375 180)" visibility="inherit" oryx:fontSize="12"/></g><g class="children" style="overflow:hidden"/><g class="edge"/></g><g class="controls"><g class="dockers"/><g class="magnets"/></g></g><g id="_29E74EF3-5A5C-4746-80DA-DFFD2BFB4F51" bpmn2nodeid="_FBB69AFF-DE2A-449F-99DE-266B5E7F631C"><g class="stencils"><g class="me"><g pointer-events="painted" bpmn2nodeid="_FBB69AFF-DE2A-449F-99DE-266B5E7F631C"><path id="_29E74EF3-5A5C-4746-80DA-DFFD2BFB4F51_1" d="M440.84375 180L484.15625 180 " stroke="#000000" fill="none" stroke-width="2" stroke-linecap="round" stroke-linejoin="round" marker-start="url(#_29E74EF3-5A5C-4746-80DA-DFFD2BFB4F51start)" marker-end="url(#_29E74EF3-5A5C-4746-80DA-DFFD2BFB4F51end)"/></g><text id="_29E74EF3-5A5C-4746-80DA-DFFD2BFB4F51text_name" font-size="12" x="454.84375" y="166" oryx:edgePosition="startTop" stroke-width="0pt" letter-spacing="-0.01px" fill="#000000" text-anchor="start" transform="rotate(360 440.84375 180)" visibility="inherit" oryx:fontSize="12"/></g><g class="children" style="overflow:hidden"/><g class="edge"/></g><g class="controls"><g class="dockers"/><g class="magnets"/></g></g><g id="_8C237E34-86C7-44E3-BA57-123CA4B7C8EF" bpmn2nodeid="_09507766-9202-412A-88BC-1F938CC0E830"><g class="stencils"><g class="me"><g pointer-events="painted" bpmn2nodeid="_09507766-9202-412A-88BC-1F938CC0E830"><path id="_8C237E34-86C7-44E3-BA57-123CA4B7C8EF_1" d="M585.390625 180L629.375 180 " stroke="#000000" fill="none" stroke-width="2" stroke-linecap="round" stroke-linejoin="round" marker-start="url(#_8C237E34-86C7-44E3-BA57-123CA4B7C8EFstart)" marker-end="url(#_8C237E34-86C7-44E3-BA57-123CA4B7C8EFend)"/></g><text id="_8C237E34-86C7-44E3-BA57-123CA4B7C8EFtext_name" font-size="12" x="599.390625" y="166" oryx:edgePosition="startTop" stroke-width="0pt" letter-spacing="-0.01px" fill="#000000" text-anchor="start" transform="rotate(360 585.390625 180)" visibility="inherit" oryx:fontSize="12"/></g><g class="children" style="overflow:hidden"/><g class="edge"/></g><g class="controls"><g class="dockers"/><g class="magnets"/></g></g></g><text id="_067708EB-3A49-48F3-80CF-477EC594562E" style="stroke-width:1;fill:rgb(177,194,214);font-family:arial;font-weight:bold" font-size="12" onclick="ORYX.Plugins.CanvasTitle.openTextualAnalysis()" onmouseover="ORYX.Plugins.CanvasTitle.addToolTip('_067708EB-3A49-48F3-80CF-477EC594562E')" transform="translate(10, 20)">testBPD v.1.0 (com.telesure.gittest.gitBPD)</text></g></g></svg>