<svg xmlns="http://www.w3.org/2000/svg" xmlns:oryx="http://oryx-editor.org" id="_36504247-4BAC-4BC8-BCEC-65CADF4790FD" width="558.671875" height="260.671875" xmlns:xlink="http://www.w3.org/1999/xlink" xmlns:svg="http://www.w3.org/2000/svg"><defs><marker id="_B679AED0-BCA3-4F49-80BD-D64E0E30F64Bstart" refX="1" refY="5" markerUnits="userSpaceOnUse" markerWidth="17" markerHeight="11" orient="auto" fill="#000000" stroke="#000000"> 	  		<path id="_B679AED0-BCA3-4F49-80BD-D64E0E30F64Bconditional" d="M 0 5 L 8 0 L 16 5 L 8 10 L 0 5" fill="white" stroke="#000000" stroke-width="1" display="none"/> 			<path id="_B679AED0-BCA3-4F49-80BD-D64E0E30F64Bdefault" d="M 5 0 L 11 10" fill="white" stroke="#000000" stroke-width="1" display="none"/> 	  	</marker><marker id="_B679AED0-BCA3-4F49-80BD-D64E0E30F64Bend" refX="15" refY="6" markerUnits="userSpaceOnUse" markerWidth="15" markerHeight="12" orient="auto" fill="#000000" stroke="#000000"> 	  		<path id="_B679AED0-BCA3-4F49-80BD-D64E0E30F64Bframe2" d="M 0 1 L 15 6 L 0 11z" fill="#000000" stroke="#000000" stroke-linejoin="round" stroke-width="2"/> 	  	</marker><marker id="_51FC6ABF-E0EC-42EF-823C-1C0A2ED29588start" refX="1" refY="5" markerUnits="userSpaceOnUse" markerWidth="17" markerHeight="11" orient="auto" fill="#000000" stroke="#000000"> 	  		<path id="_51FC6ABF-E0EC-42EF-823C-1C0A2ED29588conditional" d="M 0 5 L 8 0 L 16 5 L 8 10 L 0 5" fill="white" stroke="#000000" stroke-width="1" display="none"/> 			<path id="_51FC6ABF-E0EC-42EF-823C-1C0A2ED29588default" d="M 5 0 L 11 10" fill="white" stroke="#000000" stroke-width="1" display="none"/> 	  	</marker><marker id="_51FC6ABF-E0EC-42EF-823C-1C0A2ED29588end" refX="15" refY="6" markerUnits="userSpaceOnUse" markerWidth="15" markerHeight="12" orient="auto" fill="#000000" stroke="#000000"> 	  		<path id="_51FC6ABF-E0EC-42EF-823C-1C0A2ED29588frame2" d="M 0 1 L 15 6 L 0 11z" fill="#000000" stroke="#000000" stroke-linejoin="round" stroke-width="2"/> 	  	</marker><marker id="_56F75496-5C2C-4682-870B-FDAC87BDD536start" refX="1" refY="5" markerUnits="userSpaceOnUse" markerWidth="17" markerHeight="11" orient="auto" fill="#000000" stroke="#000000"> 	  		<path id="_56F75496-5C2C-4682-870B-FDAC87BDD536conditional" d="M 0 5 L 8 0 L 16 5 L 8 10 L 0 5" fill="white" stroke="#000000" stroke-width="1" display="none"/> 			<path id="_56F75496-5C2C-4682-870B-FDAC87BDD536default" d="M 5 0 L 11 10" fill="white" stroke="#000000" stroke-width="1" display="none"/> 	  	</marker><marker id="_56F75496-5C2C-4682-870B-FDAC87BDD536end" refX="15" refY="6" markerUnits="userSpaceOnUse" markerWidth="15" markerHeight="12" orient="auto" fill="#000000" stroke="#000000"> 	  		<path id="_56F75496-5C2C-4682-870B-FDAC87BDD536frame2" d="M 0 1 L 15 6 L 0 11z" fill="#000000" stroke="#000000" stroke-linejoin="round" stroke-width="2"/> 	  	</marker></defs><g stroke="none" font-family="Verdana, sans-serif" font-size-adjust="none" font-style="normal" font-variant="normal" font-weight="normal" line-heigth="normal" font-size="12"><g class="stencils" transform="translate(15.671875, 15.671875)"><g class="me"/><g class="children"><g id="_9ECB173B-B230-4886-96CC-1768A36146F5" bpmn2nodeid="processStartEvent"><g class="stencils" transform="translate(120, 165)"><g class="me"><g pointer-events="fill" id="_9ECB173B-B230-4886-96CC-1768A36146F5">        <defs id="_9ECB173B-B230-4886-96CC-1768A36146F5__9ECB173B-B230-4886-96CC-1768A36146F5_5"> 		<radialGradient id="_9ECB173B-B230-4886-96CC-1768A36146F5background" cx="10%" cy="10%" r="100%" fx="10%" fy="10%"> 			<stop offset="0%" stop-color="#ffffff" stop-opacity="1" id="_9ECB173B-B230-4886-96CC-1768A36146F5__9ECB173B-B230-4886-96CC-1768A36146F5_6"/> 			<stop id="_9ECB173B-B230-4886-96CC-1768A36146F5fill_el" offset="100%" stop-color="#9acd32" stop-opacity="1"/> 		</radialGradient> 	</defs> 	     <circle id="_9ECB173B-B230-4886-96CC-1768A36146F5bg_frame" cx="15" cy="15" r="15" stroke="#000000" fill="url(#_9ECB173B-B230-4886-96CC-1768A36146F5background) white" stroke-width="1" style="stroke-dasharray: 5.5, 3"/>      <circle id="_9ECB173B-B230-4886-96CC-1768A36146F5frame" cx="15" cy="15" r="15" stroke="#000000" fill="none" stroke-width="1" display="inherit"/>  	<text font-size="11" id="_9ECB173B-B230-4886-96CC-1768A36146F5text_name" x="15" y="32" oryx:align="top center" stroke="black" stroke-width="0pt" letter-spacing="-0.01px" fill="#000000" text-anchor="middle" transform="rotate(0 15 32)" visibility="inherit" oryx:fontSize="11"/>   </g></g><g class="children" style="overflow:hidden"/><g class="edge"/></g><g class="controls"><g class="dockers"/><g class="magnets" transform="translate(120, 165)"><g pointer-events="all" display="none" transform="translate(7, 7)"><circle cx="8" cy="8" r="4" stroke="none" fill="red" fill-opacity="0.3"/></g></g></g></g><g id="_1F840569-EBB3-46E3-9706-3617BA63A2E6" bpmn2nodeid="_DEBF37BE-28BA-482C-82AF-817E4DFD6858"><g class="stencils" transform="translate(195, 140)"><g class="me"><g pointer-events="fill" oryx:minimumSize="50 40" id="_1F840569-EBB3-46E3-9706-3617BA63A2E6">   	<defs id="_1F840569-EBB3-46E3-9706-3617BA63A2E6__1F840569-EBB3-46E3-9706-3617BA63A2E6_17"> 		<radialGradient id="_1F840569-EBB3-46E3-9706-3617BA63A2E6background" cx="10%" cy="10%" r="100%" fx="10%" fy="10%"> 			<stop offset="0%" stop-color="#ffffff" stop-opacity="1" id="_1F840569-EBB3-46E3-9706-3617BA63A2E6__1F840569-EBB3-46E3-9706-3617BA63A2E6_18"/> 			<stop id="_1F840569-EBB3-46E3-9706-3617BA63A2E6fill_el" offset="100%" stop-color="#fafad2" stop-opacity="1"/> 		</radialGradient> 		<radialGradient id="_1F840569-EBB3-46E3-9706-3617BA63A2E6borderbackground" cx="10%" cy="10%" r="100%" fx="10%" fy="10%"> 			<stop offset="0%" stop-color="#ffffff" stop-opacity="1" id="_1F840569-EBB3-46E3-9706-3617BA63A2E6__1F840569-EBB3-46E3-9706-3617BA63A2E6_19"/> 			<stop id="_1F840569-EBB3-46E3-9706-3617BA63A2E6fill_border" offset="100%" stop-color="#000000" stop-opacity="1" stroke="#000000"/> 		</radialGradient> 	</defs> 	 	<rect id="_1F840569-EBB3-46E3-9706-3617BA63A2E6text_frame" oryx:anchors="bottom top right left" x="1" y="1" width="94" height="79" rx="10" ry="10" stroke="none" stroke-width="0" fill="none"/> 	<rect id="_1F840569-EBB3-46E3-9706-3617BA63A2E6bg_frame" oryx:resize="vertical horizontal" x="0" y="0" width="100" height="80" rx="10" ry="10" stroke="#000000" stroke-width="1" fill="url(#_1F840569-EBB3-46E3-9706-3617BA63A2E6background) #ffffcc"/> 		<text font-size="12" id="_1F840569-EBB3-46E3-9706-3617BA63A2E6text_name" x="50" y="40" oryx:align="middle center" oryx:fittoelem="text_frame" stroke="black" text-anchor="middle" stroke-width="0pt" letter-spacing="-0.01px" fill="#000000" transform="rotate(0 50 40)" visibility="inherit" oryx:fontSize="12"><tspan x="50" y="40" dy="5" id="ext-gen631">task</tspan></text>     <g id="_1F840569-EBB3-46E3-9706-3617BA63A2E6manualTask" transform="scale(0.7,0.7) translate(8,8)" display="none">     	<path oryx:anchors="top left" id="_1F840569-EBB3-46E3-9706-3617BA63A2E6frame" style="opacity:1;fill:none;fill-opacity:1;stroke-width:1" d="M0.5,3.751l4.083-3.25c0,0,11.166,0.083,12.083,0.083s-2.417,2.917-1.5,2.917     s11.667,0,12.584,0c1.166,1.708-0.168,3.167-0.834,3.667s0.875,1.917-1,4.417c-0.75,0.25,0.75,1.875-1.333,3.333     c-1.167,0.583,0.583,1.542-1.25,2.833c-1.167,0-20.833,0.083-20.833,0.083l-2-1.333V3.751z" stroke="#000000"/> 		<path id="_1F840569-EBB3-46E3-9706-3617BA63A2E6frame2" oryx:anchors="top left" style="opacity:1;fill:none;stroke-width:2" d="M 13.5 7 L 27 7" stroke="#000000"/> 		<path id="_1F840569-EBB3-46E3-9706-3617BA63A2E6frame3" oryx:anchors="top left" style="opacity:1;fill:none;stroke-width:2" d="M 13.5 11 L 26 11" stroke="#000000"/> 		<path id="_1F840569-EBB3-46E3-9706-3617BA63A2E6frame4" oryx:anchors="top left" style="opacity:1;fill:none;stroke-width:1.5" d="M 14 14.5 L 25 14.5" stroke="#000000"/> 		<path id="_1F840569-EBB3-46E3-9706-3617BA63A2E6frame5" oryx:anchors="top left" style="opacity:1;fill:none;stroke-width:1.5" d="M 8.2 3.1 L 15 3.1" stroke="#000000"/> 	</g> 	 	<g id="_1F840569-EBB3-46E3-9706-3617BA63A2E6businessRuleTask" transform="scale(0.7,0.7) translate(8,8)" display="none"> 		<rect id="_1F840569-EBB3-46E3-9706-3617BA63A2E6frame6" oryx:anchors="top left" x="0" y="0" width="22" height="4" style="opacity:1;fill:#B3B1B3;fill-opacity:1;" stroke="#000000"/> 		<rect id="_1F840569-EBB3-46E3-9706-3617BA63A2E6frame7" oryx:anchors="top left" x="0" y="4" style="opacity:1;fill:none;" width="22" height="12" stroke="#000000"/> 		<path id="_1F840569-EBB3-46E3-9706-3617BA63A2E6frame8" oryx:anchors="top left" style="opacity:1;fill:none;" d="M 0 10 L 22 10" stroke="#000000"/> 		<path id="_1F840569-EBB3-46E3-9706-3617BA63A2E6frame9" oryx:anchors="top left" style="opacity:1; fill:none;" d="M 7 4 L 7 16" stroke="#000000"/> 	</g> 	 	<g id="_1F840569-EBB3-46E3-9706-3617BA63A2E6scriptTask" transform="scale(0.7,0.7) translate(8,8)" display="none"> 		<path oryx:anchors="top left" id="_1F840569-EBB3-46E3-9706-3617BA63A2E6frame10" style="opacity:1;fill:none;" stroke="#000000" d="M6.402,0.5h14.5c0,0-5.833,2.833-5.833,5.583s4.417,6,4.417,9.167    s-4.167,5.083-4.167,5.083H0.235c0,0,5-2.667,5-5s-4.583-6.75-4.583-9.25S6.402,0.5,6.402,0.5z"/> 		<path oryx:anchors="top left" id="_1F840569-EBB3-46E3-9706-3617BA63A2E6frame11" style="opacity:1;fill:none;stroke-width:1.5" d="M 3.5 4.5 L 13.5 4.5" stroke="#000000"/> 		<path oryx:anchors="top left" id="_1F840569-EBB3-46E3-9706-3617BA63A2E6frame12" style="opacity:1;fill:none;stroke-width:1.5" d="M 3.8 8.5 L 13.8 8.5" stroke="#000000"/> 		<path oryx:anchors="top left" id="_1F840569-EBB3-46E3-9706-3617BA63A2E6frame13" style="opacity:1;fill:none;stroke-width:1.5" d="M 6.3 12.5 L 16.3 12.5" stroke="#000000"/> 		<path oryx:anchors="top left" id="_1F840569-EBB3-46E3-9706-3617BA63A2E6frame14" style="opacity:1;fill:none;stroke-width:1.5" d="M 6.5 16.5 L 16.5 16.5" stroke="#000000"/> 	</g> 	 	<g id="_1F840569-EBB3-46E3-9706-3617BA63A2E6userTask" transform="scale(0.7,0.7) translate(8,8)" display="inherit"> 		<path id="_1F840569-EBB3-46E3-9706-3617BA63A2E6frame15" oryx:anchors="top left" style="opacity:1;fill:#F4F6F7" stroke="#000000" d="M0.585,24.167h24.083v-7.833c0,0-2.333-3.917-7.083-5.167h-9.25    c-4.417,1.333-7.833,5.75-7.833,5.75L0.585,24.167z"/> 		<path id="_1F840569-EBB3-46E3-9706-3617BA63A2E6frame16" oryx:anchors="top left" style="opacity:1;fill:none" d="M 6 20 L 6 24" stroke="#000000"/> 		<path id="_1F840569-EBB3-46E3-9706-3617BA63A2E6frame17" oryx:anchors="top left" style="opacity:1;fill:none" d="M 20 20 L 20 24" stroke="#000000"/> 		<circle id="_1F840569-EBB3-46E3-9706-3617BA63A2E6frame18" oryx:anchors="top left" fill="black" cx="13.002" cy="5.916" r="5.417" stroke="#000000"/> 		<path id="_1F840569-EBB3-46E3-9706-3617BA63A2E6frame19" oryx:anchors="top left" style="opacity:1;fill:#F0EFF0;" stroke="#000000" d="M8.043,7.083c0,0,2.814-2.426,5.376-1.807s4.624-0.693,4.624-0.693    c0.25,1.688,0.042,3.75-1.458,5.584c0,0,1.083,0.75,1.083,1.5s0.125,1.875-1,3s-5.5,1.25-6.75,0S8.668,12.834,8.668,12    s0.583-1.25,1.25-1.917C8.835,9.5,7.419,7.708,8.043,7.083z"/> 	</g> 	 	<g id="_1F840569-EBB3-46E3-9706-3617BA63A2E6serviceTask" transform="scale(0.7,0.7) translate(8,8)" display="none"> 		<polygon oryx:anchors="top left" id="_1F840569-EBB3-46E3-9706-3617BA63A2E6frame20" style="opacity:1;fill:#ffffff" stroke="#000000" points="15.392,5.064 17.954,2.502 20.347,4.895 17.786,7.455     18.729,9.732 22.353,9.732 22.353,13.115 18.731,13.115 17.788,15.392 20.351,17.955 17.958,20.347 15.397,17.786 13.12,18.729     13.12,22.353 9.737,22.353 9.737,18.731 7.46,17.788 4.897,20.35 2.506,17.958 5.066,15.397 4.124,13.12 0.5,13.12 0.5,9.737     4.121,9.737 5.065,7.461 2.503,4.898 4.895,2.506 7.455,5.066 9.732,4.125 9.732,0.5 13.116,0.5 13.116,4.121 "/> 		<circle oryx:anchors="top left" id="_1F840569-EBB3-46E3-9706-3617BA63A2E6frame21" style="opacity:1;fill:none" stroke="#000000" cx="11.427" cy="11.426" r="3.714"/> 		<polygon oryx:anchors="top left" id="_1F840569-EBB3-46E3-9706-3617BA63A2E6frame22" style="opacity:1;fill:#ffffff" stroke="#000000" points="21.392,11.064 23.954,8.502 26.347,10.895 23.786,13.455     24.729,15.732 28.353,15.732 28.353,19.115 24.731,19.115 23.788,21.392 26.351,23.955 23.958,26.347 21.397,23.786 19.12,24.729     19.12,28.353 15.737,28.353 15.737,24.731 13.46,23.788 10.897,26.35 8.506,23.958 11.066,21.397 10.124,19.12 6.5,19.12     6.5,15.737 10.121,15.737 11.065,13.461 8.503,10.898 10.895,8.506 13.455,11.066 15.732,10.125 15.732,6.5 19.116,6.5     19.116,10.121 "/> 		<circle oryx:anchors="top left" id="_1F840569-EBB3-46E3-9706-3617BA63A2E6frame23" style="opacity:1;fill:none;" stroke="#000000" cx="17.427" cy="17.426" r="3.714"/> 	</g> 	 	<g id="_1F840569-EBB3-46E3-9706-3617BA63A2E6sendTask" display="none"> 		<path id="_1F840569-EBB3-46E3-9706-3617BA63A2E6stframe24" oryx:anchors="left top" stroke="#FFFFFF" fill="black" stroke-width="1" d="M8,11 L8,21 L24,21 L24,11 L16,17z"/> 		<path id="_1F840569-EBB3-46E3-9706-3617BA63A2E6stframe25" oryx:anchors="left top" stroke="#FFFFFF" fill="black" stroke-width="1" d="M7,10 L16,17 L25 10z"/> 	</g> 	 	<g id="_1F840569-EBB3-46E3-9706-3617BA63A2E6receiveTask" display="none"> 		<path id="_1F840569-EBB3-46E3-9706-3617BA63A2E6frame26" oryx:anchors="left top" stroke="#000000" fill="none" stroke-width="1" d="M8,11 L8,21 L24,21 L24,11z M8,11 L16,17 L24,11"/> 	</g> 	 	<g id="_1F840569-EBB3-46E3-9706-3617BA63A2E6none" display="inherit"/>  	<g id="_1F840569-EBB3-46E3-9706-3617BA63A2E6sequential" display="none">         <path oryx:anchors="bottom" fill="none" stroke="#000000" stroke-width="2" d="M46,76h10M46,72h10 M46,68h10" id="_1F840569-EBB3-46E3-9706-3617BA63A2E6__1F840569-EBB3-46E3-9706-3617BA63A2E6_20"/>     </g>   </g></g><g class="children" style="overflow:hidden"/><g class="edge"/></g><g class="controls"><g class="dockers"/><g class="magnets" transform="translate(195, 140)"><g pointer-events="all" display="none" transform="translate(-7, 12)"><circle cx="8" cy="8" r="4" stroke="none" fill="red" fill-opacity="0.3"/></g><g pointer-events="all" display="none" transform="translate(-7, 32)"><circle cx="8" cy="8" r="4" stroke="none" fill="red" fill-opacity="0.3"/></g><g pointer-events="all" display="none" transform="translate(-7, 52)"><circle cx="8" cy="8" r="4" stroke="none" fill="red" fill-opacity="0.3"/></g><g pointer-events="all" display="none" transform="translate(17, 71)"><circle cx="8" cy="8" r="4" stroke="none" fill="red" fill-opacity="0.3"/></g><g pointer-events="all" display="none" transform="translate(42, 71)"><circle cx="8" cy="8" r="4" stroke="none" fill="red" fill-opacity="0.3"/></g><g pointer-events="all" display="none" transform="translate(67, 71)"><circle cx="8" cy="8" r="4" stroke="none" fill="red" fill-opacity="0.3"/></g><g pointer-events="all" display="none" transform="translate(91, 12)"><circle cx="8" cy="8" r="4" stroke="none" fill="red" fill-opacity="0.3"/></g><g pointer-events="all" display="none" transform="translate(91, 32)"><circle cx="8" cy="8" r="4" stroke="none" fill="red" fill-opacity="0.3"/></g><g pointer-events="all" display="none" transform="translate(91, 52)"><circle cx="8" cy="8" r="4" stroke="none" fill="red" fill-opacity="0.3"/></g><g pointer-events="all" display="none" transform="translate(17, -7)"><circle cx="8" cy="8" r="4" stroke="none" fill="red" fill-opacity="0.3"/></g><g pointer-events="all" display="none" transform="translate(42, -7)"><circle cx="8" cy="8" r="4" stroke="none" fill="red" fill-opacity="0.3"/></g><g pointer-events="all" display="none" transform="translate(67, -7)"><circle cx="8" cy="8" r="4" stroke="none" fill="red" fill-opacity="0.3"/></g><g pointer-events="all" display="none" transform="translate(42, 32)"><circle cx="8" cy="8" r="4" stroke="none" fill="red" fill-opacity="0.3"/></g></g></g></g><g id="_0C87C5B1-D6FD-42B1-9BCC-0A42D5FAA8B7" bpmn2nodeid="_06637EEB-AADC-4E22-B292-70708561A155"><g class="stencils" transform="translate(345, 140)"><g class="me"><g pointer-events="fill" oryx:minimumSize="50 40" id="_0C87C5B1-D6FD-42B1-9BCC-0A42D5FAA8B7">   	<defs id="_0C87C5B1-D6FD-42B1-9BCC-0A42D5FAA8B7__0C87C5B1-D6FD-42B1-9BCC-0A42D5FAA8B7_17"> 		<radialGradient id="_0C87C5B1-D6FD-42B1-9BCC-0A42D5FAA8B7background" cx="10%" cy="10%" r="100%" fx="10%" fy="10%"> 			<stop offset="0%" stop-color="#ffffff" stop-opacity="1" id="_0C87C5B1-D6FD-42B1-9BCC-0A42D5FAA8B7__0C87C5B1-D6FD-42B1-9BCC-0A42D5FAA8B7_18"/> 			<stop id="_0C87C5B1-D6FD-42B1-9BCC-0A42D5FAA8B7fill_el" offset="100%" stop-color="#fafad2" stop-opacity="1"/> 		</radialGradient> 		<radialGradient id="_0C87C5B1-D6FD-42B1-9BCC-0A42D5FAA8B7borderbackground" cx="10%" cy="10%" r="100%" fx="10%" fy="10%"> 			<stop offset="0%" stop-color="#ffffff" stop-opacity="1" id="_0C87C5B1-D6FD-42B1-9BCC-0A42D5FAA8B7__0C87C5B1-D6FD-42B1-9BCC-0A42D5FAA8B7_19"/> 			<stop id="_0C87C5B1-D6FD-42B1-9BCC-0A42D5FAA8B7fill_border" offset="100%" stop-color="#000000" stop-opacity="1" stroke="#000000"/> 		</radialGradient> 	</defs> 	 	<rect id="_0C87C5B1-D6FD-42B1-9BCC-0A42D5FAA8B7text_frame" oryx:anchors="bottom top right left" x="1" y="1" width="94" height="79" rx="10" ry="10" stroke="none" stroke-width="0" fill="none"/> 	<rect id="_0C87C5B1-D6FD-42B1-9BCC-0A42D5FAA8B7bg_frame" oryx:resize="vertical horizontal" x="0" y="0" width="100" height="80" rx="10" ry="10" stroke="#000000" stroke-width="1" fill="url(#_0C87C5B1-D6FD-42B1-9BCC-0A42D5FAA8B7background) #ffffcc"/> 		<text font-size="12" id="_0C87C5B1-D6FD-42B1-9BCC-0A42D5FAA8B7text_name" x="50" y="40" oryx:align="middle center" oryx:fittoelem="text_frame" stroke="black" text-anchor="middle" stroke-width="0pt" letter-spacing="-0.01px" fill="#000000" transform="rotate(0 50 40)" visibility="inherit" oryx:fontSize="12"><tspan x="50" y="40" dy="5" id="ext-gen657">task</tspan></text>     <g id="_0C87C5B1-D6FD-42B1-9BCC-0A42D5FAA8B7manualTask" transform="scale(0.7,0.7) translate(8,8)" display="none">     	<path oryx:anchors="top left" id="_0C87C5B1-D6FD-42B1-9BCC-0A42D5FAA8B7frame" style="opacity:1;fill:none;fill-opacity:1;stroke-width:1" d="M0.5,3.751l4.083-3.25c0,0,11.166,0.083,12.083,0.083s-2.417,2.917-1.5,2.917     s11.667,0,12.584,0c1.166,1.708-0.168,3.167-0.834,3.667s0.875,1.917-1,4.417c-0.75,0.25,0.75,1.875-1.333,3.333     c-1.167,0.583,0.583,1.542-1.25,2.833c-1.167,0-20.833,0.083-20.833,0.083l-2-1.333V3.751z" stroke="#000000"/> 		<path id="_0C87C5B1-D6FD-42B1-9BCC-0A42D5FAA8B7frame2" oryx:anchors="top left" style="opacity:1;fill:none;stroke-width:2" d="M 13.5 7 L 27 7" stroke="#000000"/> 		<path id="_0C87C5B1-D6FD-42B1-9BCC-0A42D5FAA8B7frame3" oryx:anchors="top left" style="opacity:1;fill:none;stroke-width:2" d="M 13.5 11 L 26 11" stroke="#000000"/> 		<path id="_0C87C5B1-D6FD-42B1-9BCC-0A42D5FAA8B7frame4" oryx:anchors="top left" style="opacity:1;fill:none;stroke-width:1.5" d="M 14 14.5 L 25 14.5" stroke="#000000"/> 		<path id="_0C87C5B1-D6FD-42B1-9BCC-0A42D5FAA8B7frame5" oryx:anchors="top left" style="opacity:1;fill:none;stroke-width:1.5" d="M 8.2 3.1 L 15 3.1" stroke="#000000"/> 	</g> 	 	<g id="_0C87C5B1-D6FD-42B1-9BCC-0A42D5FAA8B7businessRuleTask" transform="scale(0.7,0.7) translate(8,8)" display="none"> 		<rect id="_0C87C5B1-D6FD-42B1-9BCC-0A42D5FAA8B7frame6" oryx:anchors="top left" x="0" y="0" width="22" height="4" style="opacity:1;fill:#B3B1B3;fill-opacity:1;" stroke="#000000"/> 		<rect id="_0C87C5B1-D6FD-42B1-9BCC-0A42D5FAA8B7frame7" oryx:anchors="top left" x="0" y="4" style="opacity:1;fill:none;" width="22" height="12" stroke="#000000"/> 		<path id="_0C87C5B1-D6FD-42B1-9BCC-0A42D5FAA8B7frame8" oryx:anchors="top left" style="opacity:1;fill:none;" d="M 0 10 L 22 10" stroke="#000000"/> 		<path id="_0C87C5B1-D6FD-42B1-9BCC-0A42D5FAA8B7frame9" oryx:anchors="top left" style="opacity:1; fill:none;" d="M 7 4 L 7 16" stroke="#000000"/> 	</g> 	 	<g id="_0C87C5B1-D6FD-42B1-9BCC-0A42D5FAA8B7scriptTask" transform="scale(0.7,0.7) translate(8,8)" display="none"> 		<path oryx:anchors="top left" id="_0C87C5B1-D6FD-42B1-9BCC-0A42D5FAA8B7frame10" style="opacity:1;fill:none;" stroke="#000000" d="M6.402,0.5h14.5c0,0-5.833,2.833-5.833,5.583s4.417,6,4.417,9.167    s-4.167,5.083-4.167,5.083H0.235c0,0,5-2.667,5-5s-4.583-6.75-4.583-9.25S6.402,0.5,6.402,0.5z"/> 		<path oryx:anchors="top left" id="_0C87C5B1-D6FD-42B1-9BCC-0A42D5FAA8B7frame11" style="opacity:1;fill:none;stroke-width:1.5" d="M 3.5 4.5 L 13.5 4.5" stroke="#000000"/> 		<path oryx:anchors="top left" id="_0C87C5B1-D6FD-42B1-9BCC-0A42D5FAA8B7frame12" style="opacity:1;fill:none;stroke-width:1.5" d="M 3.8 8.5 L 13.8 8.5" stroke="#000000"/> 		<path oryx:anchors="top left" id="_0C87C5B1-D6FD-42B1-9BCC-0A42D5FAA8B7frame13" style="opacity:1;fill:none;stroke-width:1.5" d="M 6.3 12.5 L 16.3 12.5" stroke="#000000"/> 		<path oryx:anchors="top left" id="_0C87C5B1-D6FD-42B1-9BCC-0A42D5FAA8B7frame14" style="opacity:1;fill:none;stroke-width:1.5" d="M 6.5 16.5 L 16.5 16.5" stroke="#000000"/> 	</g> 	 	<g id="_0C87C5B1-D6FD-42B1-9BCC-0A42D5FAA8B7userTask" transform="scale(0.7,0.7) translate(8,8)" display="inherit"> 		<path id="_0C87C5B1-D6FD-42B1-9BCC-0A42D5FAA8B7frame15" oryx:anchors="top left" style="opacity:1;fill:#F4F6F7" stroke="#000000" d="M0.585,24.167h24.083v-7.833c0,0-2.333-3.917-7.083-5.167h-9.25    c-4.417,1.333-7.833,5.75-7.833,5.75L0.585,24.167z"/> 		<path id="_0C87C5B1-D6FD-42B1-9BCC-0A42D5FAA8B7frame16" oryx:anchors="top left" style="opacity:1;fill:none" d="M 6 20 L 6 24" stroke="#000000"/> 		<path id="_0C87C5B1-D6FD-42B1-9BCC-0A42D5FAA8B7frame17" oryx:anchors="top left" style="opacity:1;fill:none" d="M 20 20 L 20 24" stroke="#000000"/> 		<circle id="_0C87C5B1-D6FD-42B1-9BCC-0A42D5FAA8B7frame18" oryx:anchors="top left" fill="black" cx="13.002" cy="5.916" r="5.417" stroke="#000000"/> 		<path id="_0C87C5B1-D6FD-42B1-9BCC-0A42D5FAA8B7frame19" oryx:anchors="top left" style="opacity:1;fill:#F0EFF0;" stroke="#000000" d="M8.043,7.083c0,0,2.814-2.426,5.376-1.807s4.624-0.693,4.624-0.693    c0.25,1.688,0.042,3.75-1.458,5.584c0,0,1.083,0.75,1.083,1.5s0.125,1.875-1,3s-5.5,1.25-6.75,0S8.668,12.834,8.668,12    s0.583-1.25,1.25-1.917C8.835,9.5,7.419,7.708,8.043,7.083z"/> 	</g> 	 	<g id="_0C87C5B1-D6FD-42B1-9BCC-0A42D5FAA8B7serviceTask" transform="scale(0.7,0.7) translate(8,8)" display="none"> 		<polygon oryx:anchors="top left" id="_0C87C5B1-D6FD-42B1-9BCC-0A42D5FAA8B7frame20" style="opacity:1;fill:#ffffff" stroke="#000000" points="15.392,5.064 17.954,2.502 20.347,4.895 17.786,7.455     18.729,9.732 22.353,9.732 22.353,13.115 18.731,13.115 17.788,15.392 20.351,17.955 17.958,20.347 15.397,17.786 13.12,18.729     13.12,22.353 9.737,22.353 9.737,18.731 7.46,17.788 4.897,20.35 2.506,17.958 5.066,15.397 4.124,13.12 0.5,13.12 0.5,9.737     4.121,9.737 5.065,7.461 2.503,4.898 4.895,2.506 7.455,5.066 9.732,4.125 9.732,0.5 13.116,0.5 13.116,4.121 "/> 		<circle oryx:anchors="top left" id="_0C87C5B1-D6FD-42B1-9BCC-0A42D5FAA8B7frame21" style="opacity:1;fill:none" stroke="#000000" cx="11.427" cy="11.426" r="3.714"/> 		<polygon oryx:anchors="top left" id="_0C87C5B1-D6FD-42B1-9BCC-0A42D5FAA8B7frame22" style="opacity:1;fill:#ffffff" stroke="#000000" points="21.392,11.064 23.954,8.502 26.347,10.895 23.786,13.455     24.729,15.732 28.353,15.732 28.353,19.115 24.731,19.115 23.788,21.392 26.351,23.955 23.958,26.347 21.397,23.786 19.12,24.729     19.12,28.353 15.737,28.353 15.737,24.731 13.46,23.788 10.897,26.35 8.506,23.958 11.066,21.397 10.124,19.12 6.5,19.12     6.5,15.737 10.121,15.737 11.065,13.461 8.503,10.898 10.895,8.506 13.455,11.066 15.732,10.125 15.732,6.5 19.116,6.5     19.116,10.121 "/> 		<circle oryx:anchors="top left" id="_0C87C5B1-D6FD-42B1-9BCC-0A42D5FAA8B7frame23" style="opacity:1;fill:none;" stroke="#000000" cx="17.427" cy="17.426" r="3.714"/> 	</g> 	 	<g id="_0C87C5B1-D6FD-42B1-9BCC-0A42D5FAA8B7sendTask" display="none"> 		<path id="_0C87C5B1-D6FD-42B1-9BCC-0A42D5FAA8B7stframe24" oryx:anchors="left top" stroke="#FFFFFF" fill="black" stroke-width="1" d="M8,11 L8,21 L24,21 L24,11 L16,17z"/> 		<path id="_0C87C5B1-D6FD-42B1-9BCC-0A42D5FAA8B7stframe25" oryx:anchors="left top" stroke="#FFFFFF" fill="black" stroke-width="1" d="M7,10 L16,17 L25 10z"/> 	</g> 	 	<g id="_0C87C5B1-D6FD-42B1-9BCC-0A42D5FAA8B7receiveTask" display="none"> 		<path id="_0C87C5B1-D6FD-42B1-9BCC-0A42D5FAA8B7frame26" oryx:anchors="left top" stroke="#000000" fill="none" stroke-width="1" d="M8,11 L8,21 L24,21 L24,11z M8,11 L16,17 L24,11"/> 	</g> 	 	<g id="_0C87C5B1-D6FD-42B1-9BCC-0A42D5FAA8B7none" display="inherit"/>  	<g id="_0C87C5B1-D6FD-42B1-9BCC-0A42D5FAA8B7sequential" display="none">         <path oryx:anchors="bottom" fill="none" stroke="#000000" stroke-width="2" d="M46,76h10M46,72h10 M46,68h10" id="_0C87C5B1-D6FD-42B1-9BCC-0A42D5FAA8B7__0C87C5B1-D6FD-42B1-9BCC-0A42D5FAA8B7_20"/>     </g>   </g></g><g class="children" style="overflow:hidden"/><g class="edge"/></g><g class="controls"><g class="dockers"/><g class="magnets" transform="translate(345, 140)"><g pointer-events="all" display="none" transform="translate(-7, 12)"><circle cx="8" cy="8" r="4" stroke="none" fill="red" fill-opacity="0.3"/></g><g pointer-events="all" display="none" transform="translate(-7, 32)"><circle cx="8" cy="8" r="4" stroke="none" fill="red" fill-opacity="0.3"/></g><g pointer-events="all" display="none" transform="translate(-7, 52)"><circle cx="8" cy="8" r="4" stroke="none" fill="red" fill-opacity="0.3"/></g><g pointer-events="all" display="none" transform="translate(17, 71)"><circle cx="8" cy="8" r="4" stroke="none" fill="red" fill-opacity="0.3"/></g><g pointer-events="all" display="none" transform="translate(42, 71)"><circle cx="8" cy="8" r="4" stroke="none" fill="red" fill-opacity="0.3"/></g><g pointer-events="all" display="none" transform="translate(67, 71)"><circle cx="8" cy="8" r="4" stroke="none" fill="red" fill-opacity="0.3"/></g><g pointer-events="all" display="none" transform="translate(91, 12)"><circle cx="8" cy="8" r="4" stroke="none" fill="red" fill-opacity="0.3"/></g><g pointer-events="all" display="none" transform="translate(91, 32)"><circle cx="8" cy="8" r="4" stroke="none" fill="red" fill-opacity="0.3"/></g><g pointer-events="all" display="none" transform="translate(91, 52)"><circle cx="8" cy="8" r="4" stroke="none" fill="red" fill-opacity="0.3"/></g><g pointer-events="all" display="none" transform="translate(17, -7)"><circle cx="8" cy="8" r="4" stroke="none" fill="red" fill-opacity="0.3"/></g><g pointer-events="all" display="none" transform="translate(42, -7)"><circle cx="8" cy="8" r="4" stroke="none" fill="red" fill-opacity="0.3"/></g><g pointer-events="all" display="none" transform="translate(67, -7)"><circle cx="8" cy="8" r="4" stroke="none" fill="red" fill-opacity="0.3"/></g><g pointer-events="all" display="none" transform="translate(42, 32)"><circle cx="8" cy="8" r="4" stroke="none" fill="red" fill-opacity="0.3"/></g></g></g></g><g id="_B5E6F026-B032-4A68-9B97-326CEEF8AF1E" bpmn2nodeid="_52450056-B887-454D-ACE9-B205437ACBC7"><g class="stencils" transform="translate(490, 166)"><g class="me"><g pointer-events="fill" id="_B5E6F026-B032-4A68-9B97-326CEEF8AF1E">      <defs id="_B5E6F026-B032-4A68-9B97-326CEEF8AF1E__B5E6F026-B032-4A68-9B97-326CEEF8AF1E_5"> 		<radialGradient id="_B5E6F026-B032-4A68-9B97-326CEEF8AF1Ebackground" cx="10%" cy="10%" r="100%" fx="10%" fy="10%"> 			<stop offset="0%" stop-color="#ffffff" stop-opacity="1" id="_B5E6F026-B032-4A68-9B97-326CEEF8AF1E__B5E6F026-B032-4A68-9B97-326CEEF8AF1E_6"/> 			<stop id="_B5E6F026-B032-4A68-9B97-326CEEF8AF1Efill_el" offset="100%" stop-color="#ff6347" stop-opacity="1"/> 		</radialGradient> 	</defs> 	     <circle id="_B5E6F026-B032-4A68-9B97-326CEEF8AF1Ebg_frame" cx="14" cy="14" r="14" stroke="#000000" fill="url(#_B5E6F026-B032-4A68-9B97-326CEEF8AF1Ebackground) white" stroke-width="3"/> 	<text font-size="11" id="_B5E6F026-B032-4A68-9B97-326CEEF8AF1Etext_name" x="14" y="30" oryx:align="top center" stroke="black" stroke-width="0pt" letter-spacing="-0.01px" fill="#000000" text-anchor="middle" transform="rotate(0 14 30)" visibility="inherit" oryx:fontSize="11"/>   </g></g><g class="children" style="overflow:hidden"/><g class="edge"/></g><g class="controls"><g class="dockers"/><g class="magnets" transform="translate(490, 166)"><g pointer-events="all" display="none" transform="translate(6, 6)"><circle cx="8" cy="8" r="4" stroke="none" fill="red" fill-opacity="0.3"/></g></g></g></g></g><g class="edge"><g id="_B679AED0-BCA3-4F49-80BD-D64E0E30F64B" bpmn2nodeid="_824D04AA-58A2-44AE-B923-0D8AA201E2B5"><g class="stencils"><g class="me"><g pointer-events="painted" bpmn2nodeid="_A20B1F19-A02F-419D-915B-3219B7B5514A"><path id="_B679AED0-BCA3-4F49-80BD-D64E0E30F64B_1" d="M150.609375 180L194.15625 180 " stroke="#000000" fill="none" stroke-width="2" stroke-linecap="round" stroke-linejoin="round" marker-start="url(#_B679AED0-BCA3-4F49-80BD-D64E0E30F64Bstart)" marker-end="url(#_B679AED0-BCA3-4F49-80BD-D64E0E30F64Bend)"/></g><text id="_B679AED0-BCA3-4F49-80BD-D64E0E30F64Btext_name" font-size="12" x="164.609375" y="166" oryx:edgePosition="startTop" stroke-width="0pt" letter-spacing="-0.01px" fill="#000000" text-anchor="start" transform="rotate(360 150.609375 180)" visibility="inherit" oryx:fontSize="12"/></g><g class="children" style="overflow:hidden"/><g class="edge"/></g><g class="controls"><g class="dockers"/><g class="magnets"/></g></g><g id="_51FC6ABF-E0EC-42EF-823C-1C0A2ED29588" bpmn2nodeid="_4386D946-3285-41AC-837B-E2FFB792CD28"><g class="stencils"><g class="me"><g pointer-events="painted" bpmn2nodeid="_4386D946-3285-41AC-837B-E2FFB792CD28"><path id="_51FC6ABF-E0EC-42EF-823C-1C0A2ED29588_1" d="M295.21875 180L344.78125 180 " stroke="#000000" fill="none" stroke-width="2" stroke-linecap="round" stroke-linejoin="round" marker-start="url(#_51FC6ABF-E0EC-42EF-823C-1C0A2ED29588start)" marker-end="url(#_51FC6ABF-E0EC-42EF-823C-1C0A2ED29588end)"/></g><text id="_51FC6ABF-E0EC-42EF-823C-1C0A2ED29588text_name" font-size="12" x="309.21875" y="166" oryx:edgePosition="startTop" stroke-width="0pt" letter-spacing="-0.01px" fill="#000000" text-anchor="start" transform="rotate(360 295.21875 180)" visibility="inherit" oryx:fontSize="12"/></g><g class="children" style="overflow:hidden"/><g class="edge"/></g><g class="controls"><g class="dockers"/><g class="magnets"/></g></g><g id="_56F75496-5C2C-4682-870B-FDAC87BDD536" bpmn2nodeid="_03D7725B-ED92-41FF-AAE0-B07CA0D57ABA"><g class="stencils"><g class="me"><g pointer-events="painted" bpmn2nodeid="_03D7725B-ED92-41FF-AAE0-B07CA0D57ABA"><path id="_56F75496-5C2C-4682-870B-FDAC87BDD536_1" d="M445.390625 180L489.375 180 " stroke="#000000" fill="none" stroke-width="2" stroke-linecap="round" stroke-linejoin="round" marker-start="url(#_56F75496-5C2C-4682-870B-FDAC87BDD536start)" marker-end="url(#_56F75496-5C2C-4682-870B-FDAC87BDD536end)"/></g><text id="_56F75496-5C2C-4682-870B-FDAC87BDD536text_name" font-size="12" x="459.390625" y="166" oryx:edgePosition="startTop" stroke-width="0pt" letter-spacing="-0.01px" fill="#000000" text-anchor="start" transform="rotate(360 445.390625 180)" visibility="inherit" oryx:fontSize="12"/></g><g class="children" style="overflow:hidden"/><g class="edge"/></g><g class="controls"><g class="dockers"/><g class="magnets"/></g></g></g><text id="_5BEB71BF-F8C8-4ABD-A22E-43AAB7A48396" style="stroke-width:1;fill:rgb(177,194,214);font-family:arial;font-weight:bold" font-size="12" onclick="ORYX.Plugins.CanvasTitle.openTextualAnalysis()" onmouseover="ORYX.Plugins.CanvasTitle.addToolTip('_5BEB71BF-F8C8-4ABD-A22E-43AAB7A48396')" transform="translate(10, 20)">testBPD v.1.0 (com.telesure.gittest.gitBPD1)</text></g></g></svg>